<?xml version="1.0" encoding="utf-8"?>
<!--Generator: Adobe Illustrator 22.1.0, SVG Export Plug-In . SVG Version: 6.00 Build 0)-->
<svg xmlns="http://www.w3.org/2000/svg" xmlns:xlink="http://www.w3.org/1999/xlink" x="0px" y="0px" enable-background="new 0 0 354.698 150.191" version="1.1" viewBox="0 0 354.698 150.191" xml:space="preserve">
    <path fill="#241F21" d="M27.269,84.574v-1.548c-0.02-3.108-1.8-6.111-5.929-6.111c-4.063,0-5.999,3-6.005,6.105v1.554H4.772V70.972
	h3.881v3.012h9.671v-7.531h6.043v7.531h9.779v-3.012h3.777v13.602H27.269z M40.917,67.977h-9.765v3.012h-3.789v-7.533H15.336v7.533
	h-3.689v-3.012H1.774V87.57h16.55v-4.545c0.002-1.476,1.094-3.114,3.016-3.114c1.99,0,2.92,1.658,2.926,3.114v4.545h16.65V67.977z"/>
    <path fill="#241F21" d="M73.935,87.544h-2.57V69.202h-0.058l-6.183,18.343h-2.31l-6.153-18.343h-0.058v18.343h-1.53V71.122
	c0-1.176-0.202-1.93-0.608-2.268c-0.26-0.212-1.044-0.448-2.352-0.708v-0.504h6.469l5.865,17h0.058l5.849-17h3.583V87.544z"/>
    <path fill="#241F21" d="M94.494,79.787l-3.336-9.011l-3.381,9.011H94.494z M100.184,87.544H97.31l-2.484-6.601h-7.453l-2.34,6.601
	H83.17l6.125-16.422c0.298-0.788,0.446-1.32,0.446-1.59c0-0.422-0.292-0.754-0.88-0.994c-0.174-0.078-0.64-0.208-1.402-0.392v-0.504
	h5.085L100.184,87.544z"/>
    <path fill="#241F21" d="M118.736,72.464c0-2.444-1.468-3.669-4.405-3.669c-0.962,0-1.552,0.106-1.768,0.32
	c-0.216,0.21-0.326,0.764-0.326,1.66v5.821h1.098c1.694,0,2.96-0.25,3.799-0.752C118.204,75.191,118.736,74.064,118.736,72.464
	 M122.492,87.544h-2.888l-5.893-9.793h-1.474v9.793h-2.57V70.776c0-1.04-0.246-1.72-0.736-2.038c-0.24-0.162-0.992-0.36-2.254-0.592
	v-0.504h8.363c2.08,0,3.635,0.322,4.667,0.968c1.288,0.808,1.934,2.19,1.934,4.145c0,2.754-1.704,4.361-5.113,4.825L122.492,87.544z
	"/>
    <path fill="#241F21" d="M143.545,82.156c0,1.944-0.742,3.418-2.224,4.421c-1.272,0.866-2.926,1.3-4.969,1.3
	c-1.444,0-3.024-0.198-4.739-0.594v-2.05c1.812,0.868,3.531,1.3,5.159,1.3c2.752,0,4.131-1.25,4.131-3.755
	c0-1.366-0.82-2.552-2.456-3.555c-1.52-0.846-3.048-1.698-4.579-2.554c-1.636-1.156-2.456-2.61-2.456-4.365
	c0-1.722,0.67-3.022,2.008-3.899c1.136-0.732,2.614-1.098,4.435-1.098c1.376,0,2.836,0.16,4.377,0.478v2.066
	c-1.744-0.812-3.366-1.216-4.867-1.216c-1.002,0-1.83,0.242-2.486,0.724c-0.73,0.528-1.096,1.276-1.096,2.238
	c0,1.262,0.842,2.388,2.526,3.378c1.57,0.868,3.134,1.734,4.695,2.602C142.697,78.802,143.545,80.328,143.545,82.156"/>
    <path fill="#241F21" d="M168.149,87.544h-2.57v-9.735h-8.665v9.735h-2.572V71.006c0-0.952-0.274-1.558-0.824-1.818
	c-0.202-0.098-0.914-0.218-2.136-0.362V68.32l5.533-0.678v9.013h8.665v-9.013h2.57V87.544z"/>
    <path fill="#241F21" d="M188.765,79.787l-3.336-9.011l-3.38,9.011H188.765z M194.455,87.544h-2.874l-2.484-6.601h-7.453l-2.34,6.601
	h-1.862l6.125-16.422c0.298-0.788,0.446-1.32,0.446-1.59c0-0.422-0.292-0.754-0.88-0.994c-0.174-0.078-0.64-0.208-1.402-0.392
	v-0.504h5.085L194.455,87.544z"/>
    <path fill="#241F21" d="M215.044,83.168l-0.158,4.377h-10.934V71.006c0-0.954-0.276-1.558-0.826-1.82
	c-0.2-0.096-0.912-0.216-2.136-0.36V68.32l5.533-0.678v16.146c0,1.252,0.112,2,0.338,2.24s0.922,0.36,2.088,0.36h2.628
	c1.02,0,1.704-0.302,2.05-0.91c0.194-0.346,0.356-1.116,0.492-2.31H215.044z"/>
    <path fill="#241F21" d="M235.761,83.168l-0.158,4.377h-10.934V71.006c0-0.954-0.276-1.558-0.826-1.82
	c-0.2-0.096-0.912-0.216-2.136-0.36V68.32l5.533-0.678v16.146c0,1.252,0.112,2,0.338,2.24s0.922,0.36,2.088,0.36h2.628
	c1.02,0,1.704-0.302,2.05-0.91c0.194-0.346,0.356-1.116,0.492-2.31H235.761z"/>
    <path fill="#241F21" d="M265.444,67.642l-4.235,20.235h-1.644l-5.389-17.665h-0.056l-5.071,17.665h-2.124l-3.408-16.812
	c-0.22-1.126-0.496-1.844-0.822-2.152c-0.298-0.27-1.026-0.524-2.182-0.766v-0.504h4.913l3.276,16.204h0.06l4.649-16.204h2.486
	l4.693,15.47h0.058l3.234-15.47H265.444z"/>
    <path fill="#241F21" d="M290.524,87.544h-2.572v-9.735h-8.665v9.735h-2.572V71.006c0-0.952-0.272-1.558-0.822-1.818
	c-0.202-0.098-0.914-0.218-2.136-0.362V68.32l5.531-0.678v9.013h8.665v-9.013h2.572V87.544z"/>
    <path fill="#241F21" d="M305.36,87.544h-2.57V71.006c0-0.952-0.276-1.558-0.824-1.818c-0.202-0.098-0.914-0.218-2.138-0.362V68.32
	l5.533-0.678V87.544z"/>
    <path fill="#241F21" d="M330.095,71.656h-0.91c-0.114-1.146-0.298-1.88-0.548-2.208c-0.346-0.434-1.072-0.652-2.18-0.652h-2.658
	v18.749h-2.57V68.796h-2.672c-1.08,0-1.796,0.222-2.152,0.664c-0.28,0.348-0.466,1.08-0.562,2.196h-0.91l0.144-4.015h14.876
	L330.095,71.656z"/>
    <path fill="#241F21" d="M352.924,83.515l-0.216,4.029H341.24V70.748c0-0.982-0.26-1.652-0.78-2.008
	c-0.356-0.242-1.094-0.438-2.21-0.594v-0.504h13.966l0.144,3.611h-0.922c-0.194-1.03-0.414-1.68-0.664-1.95
	c-0.338-0.336-1.022-0.506-2.052-0.506h-3.106c-0.818,0-1.326,0.126-1.53,0.376c-0.184,0.212-0.274,0.738-0.274,1.576v5.819h3.755
	c0.992,0,1.684-0.168,2.072-0.504c0.392-0.338,0.666-0.988,0.832-1.95h0.678v6.125h-0.678c-0.184-1.05-0.434-1.724-0.752-2.022
	c-0.356-0.328-1.072-0.492-2.152-0.492h-3.755v6.947c0,0.888,0.188,1.416,0.564,1.59c0.174,0.086,0.794,0.128,1.862,0.128h3.192
	c0.992,0,1.65-0.24,1.978-0.722c0.184-0.27,0.38-0.986,0.592-2.15H352.924z"/>
</svg>
