<?xml version="1.0" encoding="utf-8"?>
<!--Generator: Adobe Illustrator 22.1.0, SVG Export Plug-In . SVG Version: 6.00 Build 0)-->
<svg xmlns="http://www.w3.org/2000/svg" xmlns:xlink="http://www.w3.org/1999/xlink" x="0px" y="0px" enable-background="new 0 0 354.698 150.191" version="1.1" viewBox="0 0 354.698 150.191" xml:space="preserve">
    <g>
        <path fill="#111111" d="M37.849,18.673L26.312,5.345h-9.743v16.688h6.72l5.992-7.112v16.016l-5.992-7.112h-6.72v14.112l7.28,4.816
		H1l6.16-4.816V8.369L1,3.553h35.616L37.849,18.673z"/>
        <path fill="#111111" d="M68.597,28.641c0,8.96-6.049,14.728-14.896,14.728c-9.296,0-14.56-6.44-14.56-14.728
		c0-8.904,6.048-14.728,14.896-14.728C63.333,13.913,68.597,20.353,68.597,28.641z M59.021,29.649c0-8.12-1.736-14.056-5.544-14.056
		c-3.248,0-4.761,4.536-4.761,12.04c0,8.12,1.736,14.056,5.545,14.056C57.509,41.689,59.021,37.153,59.021,29.649z"/>
        <path fill="#111111" d="M94.753,15.089l-2.521,9.184c-1.345-1.96-3.136-2.856-4.761-2.856c-1.399,0-2.743,0.672-3.416,1.624v15.512
		l5.656,4.2H70.169l5.096-4.2v-16.8l-5.656-3.416l14.168-4.424v7.84c1.288-5.264,3.863-7.616,6.888-7.616
		C92.009,14.137,93.353,14.417,94.753,15.089z"/>
        <path fill="#111111" d="M110.659,43.369c-4.367,0-8.344-3.248-8.344-9.52V16.265h-5.264L111.107,5.57v8.848h7.896l-0.504,1.848
		h-7.392v15.512c0,4.088,2.184,6.328,5.096,6.328c1.177,0,2.521-0.392,3.864-1.232C117.771,41.241,114.188,43.369,110.659,43.369z"/>
        <path fill="#111111" d="M135.077,38.497l5.096,4.256h-18.983l5.096-4.256V21.865l-5.655-3.416l14.447-4.536V38.497z M124.829,6.353
		c0-3.248,2.464-5.544,5.601-5.544c3.023,0,5.544,2.464,5.544,5.544s-2.465,5.6-5.544,5.6
		C127.293,11.953,124.829,9.49,124.829,6.353z"/>
        <path fill="#111111" d="M159.215,23.041l-6.327-7.84c-1.849-0.056-4.145,1.512-4.145,4.144c0,2.968,3.024,4.592,5.88,5.432
		c4.424,1.288,10.528,2.408,10.528,9.016c0,6.384-5.656,9.576-11.984,9.576c-4.144,0-8.96-1.344-12.208-3.584l5.488-6.216
		l6.72,8.512c3.137,0,5.097-1.736,5.097-4.088c0-3.136-3.473-4.592-7.28-5.824c-4.816-1.568-9.8-3.416-9.8-9.632
		c0-5.936,5.6-8.624,11.76-8.624c3.528,0,7.616,0.84,11.032,3.024L159.215,23.041z"/>
        <path fill="#111111" d="M42.16,70.152c0,10.136-7.56,20.72-22.567,20.72H1l6.16-4.816V56.488L1,51.672h21.784
		C35.72,51.672,42.16,60.743,42.16,70.152z M31.968,72.559c0-9.912-4.984-19.096-13.607-19.096h-1.792v35.56h2.071
		C27.769,89.023,31.968,81.632,31.968,72.559z"/>
        <path fill="#111111" d="M72.517,79.951c-0.896,3.92-3.472,11.536-12.319,11.536c-8.567,0-13.776-6.608-13.776-14.56
		c0-7.112,4.76-14.896,14.112-14.896c6.888,0,11.144,4.2,11.76,12.096H53.142c0.392,4.984,3.416,9.8,10.304,9.8
		C66.47,83.927,70.222,82.696,72.517,79.951z M53.142,72.28h10.136c0.168-0.84,0.224-1.68,0.224-2.352
		c0-3.584-1.176-6.328-3.863-6.328C55.886,63.599,53.421,67.743,53.142,72.28z"/>
        <path fill="#111111" d="M90.16,90.871L78.624,69.256l-5.544-2.296l12.097-4.928l9.463,18.928l6.272-12.712l-9.521-5.712h14.504
		L91.224,90.871H90.16z"/>
        <path fill="#111111" d="M131.884,79.951c-0.896,3.92-3.472,11.536-12.32,11.536c-8.567,0-13.775-6.608-13.775-14.56
		c0-7.112,4.76-14.896,14.111-14.896c6.889,0,11.145,4.2,11.761,12.096h-19.152c0.392,4.984,3.416,9.8,10.304,9.8
		C125.836,83.927,129.588,82.696,131.884,79.951z M112.508,72.28h10.136c0.168-0.84,0.225-1.68,0.225-2.352
		c0-3.584-1.176-6.328-3.864-6.328C115.252,63.599,112.788,67.743,112.508,72.28z"/>
        <path fill="#111111" d="M146.055,86.615l5.096,4.256h-18.983l5.096-4.256v-28.84l-5.656-3.416l14.448-4.536V86.615z"/>
        <path fill="#111111" d="M180.832,76.76c0,8.96-6.048,14.728-14.896,14.728c-9.296,0-14.561-6.44-14.561-14.728
		c0-8.904,6.048-14.728,14.896-14.728C175.568,62.031,180.832,68.471,180.832,76.76z M171.256,77.767
		c0-8.12-1.735-14.056-5.544-14.056c-3.248,0-4.76,4.536-4.76,12.04c0,8.12,1.736,14.056,5.544,14.056
		C169.744,89.807,171.256,85.271,171.256,77.767z"/>
        <path fill="#111111" d="M214.885,75.975c0,7.168-4.2,14.896-13.776,14.896c-1.399,0-3.359-0.168-5.208-1.232v8.288l6.16,4.145
		h-20.048l5.096-4.145V69.871l-5.655-3.416l14.168-4.424V67.8c0.896-2.688,2.912-5.768,7.84-5.768
		C210.741,62.031,214.885,68.807,214.885,75.975z M205.98,78.495c0-6.72-2.912-10.024-6.552-10.024c-1.063,0-2.464,0.28-3.528,0.896
		v13.944c0,3.64,1.568,5.824,3.977,5.824C203.181,89.135,205.98,85.159,205.98,78.495z"/>
        <path fill="#111111" d="M255.768,86.615v-13.16c0-3.304-2.016-5.208-4.536-5.208c-0.952,0-2.52,0.28-3.695,1.176v17.192
		l3.976,4.256h-16.744l3.977-4.256v-13.16c0-3.304-1.96-5.208-4.536-5.208c-0.952,0-2.353,0.28-3.696,1.4v16.968l3.977,4.256
		h-17.864l5.096-4.256V69.871l-5.656-3.416l14.168-4.424v6.272c2.017-4.032,6.049-6.272,9.24-6.272c3.584,0,6.832,2.016,7.561,6.216
		c1.68-4.032,4.76-6.216,9.071-6.216c4.536,0,8.456,3.192,8.456,9.688v14.896l5.096,4.256h-17.863L255.768,86.615z"/>
        <path fill="#111111" d="M295.87,79.951c-0.896,3.92-3.473,11.536-12.32,11.536c-8.568,0-13.776-6.608-13.776-14.56
		c0-7.112,4.761-14.896,14.112-14.896c6.888,0,11.144,4.2,11.76,12.096h-19.151c0.392,4.984,3.416,9.8,10.304,9.8
		C289.821,83.927,293.573,82.696,295.87,79.951z M276.494,72.28h10.136c0.168-0.84,0.224-1.68,0.224-2.352
		c0-3.584-1.176-6.328-3.864-6.328C279.237,63.599,276.773,67.743,276.494,72.28z"/>
        <path fill="#111111" d="M334.401,90.871h-18.368l4.479-4.256V73.511c0-3.472-2.184-5.264-4.815-5.264
		c-1.456,0-3.024,0.504-4.368,1.624v16.744l4.48,4.256h-18.368l5.096-4.256V69.871l-5.656-3.416l14.168-4.424v6.384
		c2.185-4.032,5.769-6.384,9.576-6.384c4.48,0,8.68,3.192,8.68,9.688v14.896L334.401,90.871z"/>
        <path fill="#111111" d="M344.821,91.488c-4.368,0-8.344-3.248-8.344-9.52V64.384h-5.264l14.056-10.696v8.848h7.896l-0.504,1.848
		h-7.392v15.512c0,4.088,2.184,6.328,5.096,6.328c1.176,0,2.521-0.392,3.864-1.232C351.934,89.359,348.35,91.488,344.821,91.488z"/>
        <path fill="#111111" d="M37.344,118.046v20.944l-7.728-5.096c-2.688,3.752-6.889,5.991-10.752,5.991
		c-8.736,0-17.809-8.287-17.809-20.663c0-13.272,10.416-20.384,20.776-20.384c5.432,0,11.424,1.567,16.128,5.096l-7.336,7.784
		l-10.528-11.2c-7.784,1.68-11.424,7.84-11.424,15.12c0,8.624,6.104,18.031,16.296,18.031c1.12,0,2.072-0.111,2.969-0.336v-13.888
		l-9.185,5.544v-6.944H37.344z"/>
        <path fill="#111111" d="M65.404,111.326l-2.521,9.185c-1.344-1.96-3.136-2.856-4.76-2.856c-1.4,0-2.744,0.672-3.416,1.624v15.512
		l5.656,4.2H40.82l5.096-4.2v-16.8l-5.655-3.416l14.168-4.424v7.84c1.287-5.264,3.863-7.616,6.887-7.616
		C62.66,110.374,64.004,110.655,65.404,111.326z"/>
        <path fill="#111111" d="M96.879,124.878c0,8.96-6.048,14.729-14.896,14.729c-9.297,0-14.561-6.44-14.561-14.729
		c0-8.903,6.049-14.728,14.896-14.728C91.615,110.151,96.879,116.591,96.879,124.878z M87.304,125.887
		c0-8.12-1.736-14.057-5.545-14.057c-3.248,0-4.76,4.536-4.76,12.04c0,8.12,1.736,14.056,5.544,14.056
		C85.791,137.926,87.304,133.391,87.304,125.887z"/>
        <path fill="#111111" d="M121.019,139.886v-6.663c-1.903,3.752-5.039,6.384-8.623,6.384c-4.592,0-8.736-3.192-8.736-9.632v-11.872
		l-5.656-3.416l14.448-4.536v17.864c0,3.304,1.903,5.264,4.312,5.264c1.121,0,2.633-0.448,3.977-1.512v-13.664l-5.656-3.416
		l14.448-4.536v21.896l5.656,3.416L121.019,139.886z"/>
        <path fill="#111111" d="M166.159,124.095c0,7.168-4.2,14.896-13.776,14.896c-1.399,0-3.359-0.168-5.208-1.232v8.288l6.16,4.145
		h-20.048l5.096-4.145V117.99l-5.655-3.416l14.168-4.424v5.768c0.896-2.688,2.912-5.768,7.84-5.768
		C162.015,110.151,166.159,116.927,166.159,124.095z M157.255,126.615c0-6.72-2.912-10.023-6.552-10.023
		c-1.063,0-2.464,0.279-3.528,0.896v13.944c0,3.64,1.568,5.823,3.977,5.823C154.455,137.254,157.255,133.279,157.255,126.615z"/>
    </g>
    <g/>
    <g/>
    <g/>
    <g/>
    <g/>
    <g/>
</svg>
