<svg xmlns="http://www.w3.org/2000/svg" xmlns:xlink="http://www.w3.org/1999/xlink" x="0px" y="0px" enable-background="new 0 0 354.698 150.191" version="1.1" viewBox="0 0 354.698 150.191" xml:space="preserve">
    <rect width="138.269" height="5.676" x="0.22" y="107.514" fill="#231F20"/>
    <polygon fill="#231F20" points="332.262,113.191 332.262,82.687 353.846,82.687 353.846,88.404 338.756,88.404 338.756,94.851
	353.526,94.851 353.526,100.568 338.756,100.568 338.756,113.191 "/>
    <path fill="#231F20" d="M297.157,82.687h-8.138l-11.799,30.504h7.408l1.92-5.167h13.078l1.873,5.167h7.411L297.157,82.687z
	 M288.331,102.306l4.759-13.122l4.752,13.122H288.331z"/>
    <polygon fill="#231F20" points="228.781,113.191 228.781,82.687 250.365,82.687 250.365,88.404 235.275,88.404 235.275,94.851
	250.045,94.851 250.045,100.568 235.275,100.568 235.275,107.474 250.365,107.474 250.365,113.191 "/>
    <polygon fill="#231F20" points="174.053,113.191 174.053,82.687 180.544,82.687 180.544,107.474 193.44,107.474 193.44,113.191 "/>
    <rect width="79.392" height="5.287" x="275.306" y="36.411" fill="#231F20"/>
    <polygon fill="#231F20" points="252.085,36.398 225.994,36.404 225.994,41.697 235.8,41.697 235.8,66.956 242.294,66.956
	242.294,41.697 252.085,41.697 "/>
    <path fill="#231F20" d="M191.432,55.593c3.291-0.779,6.676-3.659,6.676-9.058c0-5.67-3.885-9.832-10.24-9.832h-14.27v30.504h6.494
	V56.366h4.756l5.991,10.841h7.456L191.432,55.593z M186.903,50.655h-6.811V42.42h6.811c2.609,0,4.576,1.556,4.576,4.114
	C191.479,49.096,189.511,50.655,186.903,50.655z"/>
    <polygon fill="#231F20" points="117.292,67.207 117.292,36.703 138.876,36.703 138.876,42.42 123.786,42.42 123.786,48.867
	138.555,48.867 138.555,54.584 123.786,54.584 123.786,61.49 138.876,61.49 138.876,67.207 "/>
    <polygon fill="#231F20" points="75.862,67.207 70.51,46.261 65.207,67.207 58.302,67.207 49.564,36.703 56.84,36.703 62.187,58.749
	67.995,36.703 73.071,36.703 78.833,58.749 84.141,36.703 91.455,36.703 82.768,67.207 "/>
    <polygon fill="#231F20" points="0,67.207 0,36.703 21.584,36.703 21.584,42.42 6.494,42.42 6.494,48.867 21.263,48.867
	21.263,54.584 6.494,54.584 6.494,61.49 21.584,61.49 21.584,67.207 "/>
</svg>
