<svg xmlns="http://www.w3.org/2000/svg" viewBox="0 0 120 64" height="64" width="120">
  <title>Ewert Leaf</title>
  <g>
    <rect x="15.405" y="40.097" width="35.084" height="1.44"/>
    <polygon points="99.656 41.537 99.656 33.797 105.133 33.797 105.133 35.248 101.304 35.248 101.304 36.884 105.052 36.884 105.052 38.334 101.304 38.334 101.304 41.537 99.656 41.537"/>
    <path d="M90.749,33.8H88.684l-2.994,7.74h1.88l.487-1.311h3.318l.475,1.311h1.881Zm-2.24,4.978,1.208-3.329,1.206,3.329Z"/>
    <polygon points="73.399 41.537 73.399 33.797 78.876 33.797 78.876 35.248 75.047 35.248 75.047 36.884 78.795 36.884 78.795 38.334 75.047 38.334 75.047 40.086 78.876 40.086 78.876 41.537 73.399 41.537"/>
    <polygon points="59.513 41.537 59.513 33.797 61.16 33.797 61.16 40.086 64.432 40.086 64.432 41.537 59.513 41.537"/>
    <rect x="85.204" y="22.055" width="20.145" height="1.342"/>
    <polygon points="79.312 22.052 72.692 22.053 72.692 23.396 75.18 23.396 75.18 29.806 76.828 29.806 76.828 23.396 79.312 23.396 79.312 22.052"/>
    <path d="M63.922,26.922a2.221,2.221,0,0,0,1.694-2.3,2.409,2.409,0,0,0-2.6-2.495H59.4v7.74h1.648v-2.75h1.207l1.52,2.75h1.892Zm-1.149-1.253H61.045V23.58h1.728a1.05,1.05,0,1,1,0,2.089Z"/>
    <polygon points="45.11 29.869 45.11 22.129 50.587 22.129 50.587 23.58 46.758 23.58 46.758 25.216 50.506 25.216 50.506 26.666 46.758 26.666 46.758 28.419 50.587 28.419 50.587 29.869 45.11 29.869"/>
    <polygon points="34.598 29.869 33.24 24.554 31.894 29.869 30.142 29.869 27.925 22.129 29.771 22.129 31.128 27.723 32.602 22.129 33.89 22.129 35.352 27.723 36.699 22.129 38.555 22.129 36.35 29.869 34.598 29.869"/>
    <polygon points="15.349 29.869 15.349 22.129 20.826 22.129 20.826 23.58 16.997 23.58 16.997 25.216 20.744 25.216 20.744 26.666 16.997 26.666 16.997 28.419 20.826 28.419 20.826 29.869 15.349 29.869"/>
  </g>
</svg>
