<svg xmlns="http://www.w3.org/2000/svg" viewBox="0 0 120 64" height="64" width="120">
  <title>Toorak Time Capsule</title>
  <g>
    <path d="M8.249,29.65l.323-2.039-.423-.22-.268,1.69L6.72,28.9l.222-1.4L6.5,27.43l-.222,1.4-1.1-.174.266-1.675-.47.078L4.652,29.08Zm.113,5.131-.13-2.066-.451.028.1,1.563-3.182.2.031.5Zm.616,6.734a1.578,1.578,0,0,0-.99-3,1.476,1.476,0,0,0-.16.063L5.92,39.33l.176.449L8,39.033a1.087,1.087,0,1,1,1.008,1.926,1.038,1.038,0,0,1-.208.083l-1.918.752.184.469Zm2.584,5.371c.438-.342.413-.8.265-1.4-.143-.581-.163-.869.079-1.058.262-.2.586-.1.823.2a1.909,1.909,0,0,1,.288,1.3l.011.006.459-.511a1.76,1.76,0,0,0-.373-1.061,1.062,1.062,0,0,0-1.461-.349.887.887,0,0,0-.081.055c-.4.314-.433.747-.271,1.412.152.634.16.872-.074,1.055s-.517.106-.744-.185a1.657,1.657,0,0,1-.3-.99l-.006-.008-.443.346a1.69,1.69,0,0,0,.372.924,1,1,0,0,0,1.377.323.964.964,0,0,0,.084-.058M16.339,48.9a1.2,1.2,0,0,0-1.7.052,1.151,1.151,0,0,0,.138,1.709,1.05,1.05,0,0,0,.141.09l.837.617,2.161-2.93-.406-.3-.778,1.055Zm-.716,1.812L15.2,50.4a.708.708,0,0,1-.286-.96.606.606,0,0,1,.048-.076.739.739,0,0,1,1.031-.165.8.8,0,0,1,.077.065l.4.3Zm5.622-.934-.511-.176.35,3.994.437.151,2.8-2.908-.492-.17-.7.748-1.8-.621Zm.116,1.5,1.431.494L21.5,53.131Zm7.159-.532a2.013,2.013,0,0,0-1.278.486l-.064.584.01.01A1.907,1.907,0,0,1,28.5,51.21a1.365,1.365,0,0,1,1.352,1.376v.035A1.38,1.38,0,0,1,28.52,54.04a1.754,1.754,0,0,1-1.241-.576h-.01l.009.609a1.78,1.78,0,0,0,1.223.435,1.87,1.87,0,0,0,1.861-1.879V52.6a1.8,1.8,0,0,0-1.742-1.857h-.1m12.579-5-1.743,1.107.115.463,1.445-.917.63.992-1.2.761.24.378,1.2-.761.6.94-1.431.908.37.3,1.73-1.1Zm3.174-4.717-.043.065,1.783,3.139-2.637-1.746-.27.407L46.142,44.9l.419-.633L45,41.548l3.108.375.411-.62-3.036-2.011-.261.394,2.615,1.733Zm2.174-5.589-.14.484,3.5,1.013.141-.485ZM49.963,32.4l.452.005.034-3.356H50l-.015,1.425-3.188-.032v.5l3.188.032ZM42.941,19.864l.354.558.013-.008.506-2.669,2.531.717.013-.009-.349-.549-2.239-.6-.067-.106,1.322-.839-.27-.426L41.681,17.88l.27.427,1.388-.881.064.1Zm-4.276-4.07.443.311.76-3.937-.379-.266L36,13.932l.426.3.882-.526,1.56,1.091Zm.3-1.472-1.24-.867,1.612-.961Zm-5.978-1.3.6.19-.843-1.882a1.063,1.063,0,0,0,1.118-.721,1.084,1.084,0,0,0-.84-1.4L32.009,8.9l-1.1,3.47.481.153.44-1.388.377.119ZM32.345,9.47l.526.167a.65.65,0,0,1,.514.762.545.545,0,0,1-.014.058.684.684,0,0,1-.87.426.429.429,0,0,1-.05-.019l-.5-.159Zm-7.921.972A1.388,1.388,0,0,1,25.759,9h.018a1.426,1.426,0,0,1,.051,2.85,1.394,1.394,0,0,1-1.4-1.388v-.023m-.515.018A1.9,1.9,0,1,0,25.8,8.531a1.869,1.869,0,0,0-1.883,1.855c0,.024,0,.047,0,.071m-6.5,2.331a1.389,1.389,0,0,1,.745-1.818l.015-.006a1.426,1.426,0,0,1,1.05,2.65,1.393,1.393,0,0,1-1.8-.8l-.01-.026m-.475.2a1.9,1.9,0,1,0,1.083-2.464,1.865,1.865,0,0,0-1.11,2.394c.008.024.017.047.027.07m-3.551,1.005-.295-.343-2.541,2.192.295.342,1.079-.93,2.083,2.414.378-.326L12.3,14.927Z"/>
    <path d="M114.323,41.137v-.113a2.738,2.738,0,0,1-.683-.183,2.12,2.12,0,0,1-.6-.671c-.4-.648-.933-1.6-1.524-2.64.364-.364.637-.637,1.046-1.024a3.93,3.93,0,0,1,1.684-.683V35.71h-2.787v.113c.375.023.876.262.876.4a7.291,7.291,0,0,1-1.912,2.048l-.148.023V32.91h-.091l-1.991.922V33.9a6.574,6.574,0,0,1,.581.308.255.255,0,0,1,.1.25v6.11c0,.285-.33.421-.683.456v.113h2.7v-.113c-.307-.046-.615-.126-.615-.41V38.429h.034c.057,0,.126.023.239.216a18.269,18.269,0,0,1,1.15,2.1c0,.137-.228.262-.524.274v.113Zm-8.887-1.377a.483.483,0,0,1-.068.285c-.068.125-.421.193-.637.193a.677.677,0,0,1-.637-.682c0-.933.864-1.172,1.342-1.536Zm2.561.069h-.08a.512.512,0,0,1-.546.432c-.3,0-.569-.171-.569-.853,0-1.036.034-1.309.034-2.39a2.024,2.024,0,0,0-.068-.671A1.244,1.244,0,0,0,105.6,35.6a7.489,7.489,0,0,0-2.31.933c-.376.227-.649.455-.649.9a.61.61,0,0,0,.649.535c.364,0,.774-.228.774-.444v-.876c0-.194.056-.455.523-.524a1.039,1.039,0,0,1,.853.876v.865c-.318.194-.808.421-1.832.99a1.579,1.579,0,0,0-.9,1.206,1.074,1.074,0,0,0,1.009,1.137.929.929,0,0,0,.118,0,1.7,1.7,0,0,0,1.6-1.092l.023.011a1.129,1.129,0,0,0,1.175,1.081h.008A1.484,1.484,0,0,0,108,39.829m-5.75-3.459a.726.726,0,0,0-.676-.773h-.024c-.979,0-1.411,1.217-1.57,1.581h-.023l.023-1.593h-.069l-1.968.82v.068a5.944,5.944,0,0,1,.535.284.232.232,0,0,1,.113.239v3.573c0,.239-.3.421-.648.456v.113h3.015v-.113c-.307-.046-.865-.1-.967-.387V37.405a1.03,1.03,0,0,1,.842-.74c.2,0,.171.444.842.444a.684.684,0,0,0,.58-.739M95.94,38.384c0,1.058-.307,2.651-1.217,2.651-.956,0-1.3-1.32-1.3-2.629,0-1.331.433-2.628,1.229-2.628.979,0,1.286,1.513,1.286,2.606m1.536.011a2.7,2.7,0,0,0-2.6-2.8c-.056,0-.112,0-.168,0a2.811,2.811,0,1,0,2.765,2.857V38.4m-7.612-.011c0,1.058-.307,2.651-1.218,2.651-.955,0-1.3-1.32-1.3-2.629,0-1.331.433-2.628,1.229-2.628.979,0,1.286,1.513,1.286,2.606M91.4,38.4a2.7,2.7,0,0,0-2.6-2.8c-.056,0-.112,0-.168,0A2.811,2.811,0,1,0,91.4,38.457V38.4m-6.32,2.624a1.679,1.679,0,0,1-1.092-.478,2.624,2.624,0,0,1-.126-1.059c0-3.982,0-5.473.012-6.247.671,0,.614,0,1.2.012a1.648,1.648,0,0,1,1.228.387A7.7,7.7,0,0,1,87.356,35.2l.1-.035-.375-2.332a4.569,4.569,0,0,1-1.229.193c-1.15.012-1.7.023-2.822.023s-1.673,0-2.822-.023a4.925,4.925,0,0,1-1.241-.193L78.6,35.165l.1.035a7.154,7.154,0,0,1,1.035-1.525,1.663,1.663,0,0,1,1.229-.421c.58-.012.546-.012,1.2-.012v3.767c0,.9-.011,1.889-.023,2.31a2.755,2.755,0,0,1-.159,1.217,1.611,1.611,0,0,1-1.149.49v.113H85.08ZM76.6,33.582c0-.512-.5-.728-1.081-.728a2.849,2.849,0,0,0-2.5,1.263A3.837,3.837,0,0,0,72.8,35.71h-.648l-.182.6h.819v4.244c0,.239-.569.432-.922.467v.113h3.277v-.113c-.455-.046-.955-.194-.955-.433V36.313H75.34l.2-.6H74.2c0-.547.011-.831.046-1.445.056-.934.466-1.1.66-1.1.307.216.421,1.092,1.137,1.092a.65.65,0,0,0,.558-.671m-6.463,4.8c0,1.058-.307,2.651-1.218,2.651-.956,0-1.3-1.32-1.3-2.629,0-1.331.433-2.628,1.229-2.628.979,0,1.286,1.513,1.286,2.606m1.536.011a2.7,2.7,0,0,0-2.6-2.8c-.056,0-.112,0-.168,0a2.811,2.811,0,1,0,2.765,2.857V38.4"/>
    <path d="M112.867,28.04a1.631,1.631,0,0,0-1.24-1.593c-.216-.068-.728-.193-1.047-.284-.478-.137-.819-.33-.819-.877a.9.9,0,0,1,.89-.91h.032c.682,0,1.4,1.013,1.786,1.832l.091-.023-.136-1.638a4.881,4.881,0,0,0-1.764-.33,1.9,1.9,0,0,0-2.06,1.661,1.556,1.556,0,0,0,.979,1.513c.3.1.8.239,1.115.33.489.137.831.342.831.808a1.045,1.045,0,0,1-.948,1.135.965.965,0,0,1-.152,0c-.785,0-1.5-1.286-1.786-1.98h-.092v1.73a4.912,4.912,0,0,0,1.992.41c1.172,0,2.332-.547,2.332-1.787m-6.6-2.617a.519.519,0,0,1-.148.41.975.975,0,0,1-.376.079c-.569.023-.8.046-1.331.046.023-.421.387-1.548,1.047-1.548a.917.917,0,0,1,.808,1.013m1.718,2.446-.114-.022a1.662,1.662,0,0,1-1.593.933c-1.172,0-1.889-1-1.889-2.322,0-.1,0-.216.012-.341h3.459a2.027,2.027,0,0,0-2.131-1.917c-.06,0-.12.009-.179.017a2.611,2.611,0,0,0-2.56,2.663v.011a2.707,2.707,0,0,0,2.483,2.915,2.327,2.327,0,0,0,.236.009,2.364,2.364,0,0,0,2.276-1.946M102.6,29.758v-.114c-.285-.022-.728-.136-.728-.421V24.205H101.8l-2.014.74v.068a2.4,2.4,0,0,1,.569.262.3.3,0,0,1,.114.284v3.63c0,.285-.421.421-.774.455v.114Zm-.66-7.089a.82.82,0,0,0-1.639,0,.847.847,0,0,0,.82.82.831.831,0,0,0,.819-.82m-2.56,2.322a.727.727,0,0,0-.678-.773h-.028c-.978,0-1.411,1.217-1.57,1.581h-.023l.023-1.593H97.04l-1.969.82v.068a5.944,5.944,0,0,1,.535.284.232.232,0,0,1,.114.239v3.573c0,.239-.3.421-.649.455v.114h3.016v-.114c-.308-.045-.865-.1-.968-.386V26.026a1.032,1.032,0,0,1,.842-.74c.2,0,.171.444.842.444a.685.685,0,0,0,.581-.739m-6.315,2.014c0,1.058-.308,2.651-1.218,2.651-.956,0-1.3-1.32-1.3-2.629,0-1.331.432-2.628,1.229-2.628.978,0,1.286,1.513,1.286,2.606m1.536.011a2.7,2.7,0,0,0-2.6-2.8c-.056,0-.112,0-.168,0A2.811,2.811,0,1,0,94.6,27.073v-.057m-5.5-2.685h-2V23.113H87L84.9,24.9v.126h.853c0,.99-.045,2.4-.045,3.823,0,.489.728.99,1.456.99a1.952,1.952,0,0,0,1.809-1.286l-.068-.034a1.208,1.208,0,0,1-.967.455c-.535,0-.819-.33-.819-1.1V25.025h1.638Zm-4.461,3.06A2.266,2.266,0,0,0,82.9,25.15c-.523-.2-1.07-.4-1.491-.569-.7-.273-1.32-.694-1.32-1.445a1.553,1.553,0,0,1,1.59-1.515H81.7c1.059,0,2.026,1.332,2.4,2.367h.125V21.577H84.1a2.031,2.031,0,0,1-.341.466,4.106,4.106,0,0,0-2.185-.6c-1.445,0-2.958.82-2.958,2.47a2.257,2.257,0,0,0,1.524,2.139c.592.239,1.161.421,1.639.591.74.262,1.32.626,1.32,1.4a1.572,1.572,0,0,1-1.5,1.645,1.509,1.509,0,0,1-.233-.006,2.247,2.247,0,0,1-1.126-.376,5,5,0,0,1-1.57-2.128h-.114l.034,2.572h.1a2.131,2.131,0,0,1,.353-.433,5.229,5.229,0,0,0,2.4.547c1.73,0,3.2-.922,3.2-2.47m-8.165-1.763H66.04v.728H76.483Z"/>
  </g>
</svg>
