<svg xmlns="http://www.w3.org/2000/svg" viewBox="0 0 120 64" height="64" width="120"><path d="M19.461 39.412c-4.844 0-7.853-3.223-7.853-8.412s3.009-8.412 7.853-8.412c3.95 0 6.672 2.238 6.934 5.7l.03.388h-3.7l-.061-.286a2.847 2.847 0 00-3.091-2.4h-.223c-2.43 0-4 1.965-4 5.006s1.57 5.006 4 5.006h.223a2.806 2.806 0 003.091-2.4l.059-.288h3.7l-.029.387c-.255 3.526-2.913 5.711-6.933 5.711zm0-16.1C15 23.31 12.33 26.185 12.33 31s2.67 7.69 7.131 7.69c3.509 0 5.789-1.728 6.175-4.645H23.3a3.519 3.519 0 01-3.73 2.683h-.223c-2.869 0-4.722-2.248-4.722-5.728s1.853-5.728 4.722-5.728h.223a3.528 3.528 0 013.73 2.683h2.333c-.333-2.313-2.099-4.645-6.172-4.645zM53.579 39.188h-7.517V22.812h7.294c3.043 0 5.169 1.813 5.169 4.409a4.047 4.047 0 01-1.981 3.623 4.059 4.059 0 012.316 3.824c0 2.619-2.221 4.52-5.281 4.52zm1.332-8.3c2.482-.939 2.885-2.476 2.892-3.67 0-2.206-1.787-3.687-4.447-3.687h-6.572v14.935h6.8c2.642 0 4.559-1.6 4.559-3.8-.005-3.098-3.232-3.775-3.232-3.775zm-1.779 5.614h-4.051v-4.678h4.051c1.722 0 2.709.849 2.709 2.329 0 1.495-.987 2.352-2.709 2.352zm-3.332-.719h3.329c1.319 0 1.987-.548 1.987-1.63 0-1.607-1.495-1.607-1.987-1.607H49.8zm3.105-5.831h-3.824V25.5h3.827c2.26 0 2.6 1.389 2.6 2.217-.002 1.419-.949 2.235-2.6 2.235zM49.8 29.23h3.105c1.262 0 1.876-.5 1.876-1.517 0-.37 0-1.5-1.876-1.5H49.8zM64.555 39.188h-3.741V22.812h3.741zm-3.019-.722h2.3V23.534h-2.3zM79.828 39.188H67.254V22.812H71v12.971h8.833zm-11.852-.722h11.131v-1.961h-8.834V23.534h-2.3zM31.719 31c0-3.135 1.537-5.006 4.112-5.006h.223a3.778 3.778 0 012.852 1.143l.509-.51a4.477 4.477 0 00-3.361-1.355h-.223C32.849 25.272 31 27.467 31 31a7.138 7.138 0 00.723 3.322l.54-.539A6.618 6.618 0 0131.719 31zM40.166 31c0 3.135-1.537 5.006-4.112 5.006h-.223a3.841 3.841 0 01-2.611-.906l-.513.513a4.542 4.542 0 003.124 1.12h.223c2.982 0 4.834-2.2 4.834-5.728a7.416 7.416 0 00-.571-3l-.551.551a6.98 6.98 0 01.4 2.444z"/><path d="M30.12 35.922A8.352 8.352 0 0128.7 31c0-4.672 2.843-7.69 7.242-7.69a7.117 7.117 0 014.983 1.808l.526-.526a7.846 7.846 0 00-5.509-2c-4.838 0-7.964 3.3-7.964 8.412a9.062 9.062 0 001.612 5.453zM42.491 25.825l-.536.535a8.523 8.523 0 011.23 4.64c0 4.672-2.843 7.69-7.243 7.69a7.212 7.212 0 01-4.731-1.59l-.527.527a7.937 7.937 0 005.258 1.78c4.839 0 7.965-3.3 7.965-8.412a9.228 9.228 0 00-1.416-5.17zM97.771 23.525h-1.98v-.713h4.753v.713h-1.981v4.831h-.792zM102.5 23.509v4.847h-.792v-5.544h1.315l1.655 4.8 1.624-4.8h1.307v5.544h-.792v-4.871l-1.632 4.871h-1.015z"/><g><path d="M91.274 27.183c-.9-1.129-2.369-1.687-4.427-1.687h-2.485v8.764l.721-.722v-7.321h1.764c1.842 0 3.128.485 3.9 1.494l.072.1.533-.533zM91.63 31c0 3.263-1.52 4.783-4.783 4.783h-1.76l-.722.722h2.482c3.7 0 5.505-1.8 5.505-5.505a8.018 8.018 0 00-.279-2.2l-.6.6a7.708 7.708 0 01.157 1.6z"/><path d="M82.064 23.534h5.007a7.588 7.588 0 015.717 2.135s.032.032.084.089l.529-.529-.083-.091a8.316 8.316 0 00-6.247-2.326h-5.729v14.467l.722-.721zM94.336 26.534l-.55.549A8.455 8.455 0 0194.649 31c0 4.745-2.722 7.466-7.467 7.466H82.4l-.721.722h5.5c5.128 0 8.189-3.061 8.189-8.188a9.169 9.169 0 00-1.032-4.466z"/></g></svg>
