<?xml version="1.0" encoding="utf-8"?>
<!--Generator: Adobe Illustrator 22.1.0, SVG Export Plug-In . SVG Version: 6.00 Build 0)-->
<svg xmlns="http://www.w3.org/2000/svg" xmlns:xlink="http://www.w3.org/1999/xlink" x="0px" y="0px" enable-background="new 0 0 187 149.667" version="1.1" viewBox="0 0 187 149.667" xml:space="preserve">
    <path d="M3.689,91.831V70.885H13.99c3.862,0,5.966,2.387,5.966,5.338c0,2.607-1.695,4.396-3.643,4.805
	c2.261,0.346,4.051,2.574,4.051,5.117c0,3.268-2.135,5.686-6.092,5.686H3.689z M16.188,76.821c0-1.539-1.068-2.701-2.921-2.701
	H7.364v5.4h5.903C15.12,79.52,16.188,78.423,16.188,76.821z M16.597,85.675c0-1.57-1.1-2.92-3.172-2.92h-6.06v5.842h6.06
	C15.403,88.596,16.597,87.497,16.597,85.675z"/>
    <path d="M36.033,91.831l-4.617-7.82h-3.674v7.82h-3.674V70.885h9.201c4.145,0,6.877,2.668,6.877,6.562
	c0,3.705-2.449,5.746-4.993,6.154l5.15,8.229H36.033z M36.379,77.417c0-2.01-1.508-3.297-3.58-3.297h-5.057v6.656h5.057
	C34.871,80.776,36.379,79.458,36.379,77.417z"/>
    <path d="M43.191,83.54V70.885h3.736v12.56c0,3.328,1.854,5.496,5.338,5.496c3.486,0,5.34-2.168,5.34-5.496v-12.56
	h3.736V83.54c0,5.182-2.984,8.668-9.076,8.668C46.205,92.208,43.191,88.721,43.191,83.54z"/>
    <path d="M64.26,81.374c0-6.469,4.805-10.834,10.99-10.834c4.209,0,6.846,2.166,8.385,4.68l-3.109,1.633
	c-1.004-1.76-3.045-3.047-5.275-3.047c-4.145,0-7.223,3.141-7.223,7.568c0,4.363,3.078,7.568,7.223,7.568
	c2.23,0,4.271-1.32,5.275-3.047l3.141,1.57c-1.602,2.512-4.207,4.742-8.416,4.742C69.064,92.208,64.26,87.811,64.26,81.374z"/>
    <path d="M85.643,91.831V70.885h14.351v3.234H89.316v5.4h10.457v3.234H89.316v5.842h10.678v3.234H85.643z"/>
    <path d="M18.261,118.791v-9.17H7.364v9.17H3.689V97.845h3.675v8.541h10.896v-8.541h3.674v20.945H18.261z"/>
    <path d="M25.764,118.791V97.845h14.352v3.234H29.438v5.4h10.457v3.234H29.438v5.842h10.677v3.234H25.764z"/>
    <path d="M57.855,118.791l-10.928-14.98v14.98h-3.674V97.845h3.769l10.708,14.508V97.845h3.674v20.945H57.855z"/>
    <path d="M64.605,118.791V97.845h7.787c6.562,0,10.959,4.332,10.959,10.457c0,6.185-4.396,10.488-10.928,10.488
	H64.605z M79.584,108.302c0-4.02-2.512-7.223-7.16-7.223h-4.145v14.477h4.113C76.945,115.556,79.584,112.291,79.584,108.302z"/>
    <path d="M85.643,118.791V97.845h14.351v3.234H89.316v5.4h10.457v3.234H89.316v5.842h10.678v3.234H85.643z"/>
    <path d="M115.725,118.791l-4.615-7.82h-3.674v7.82h-3.676V97.845h9.201c4.146,0,6.877,2.668,6.877,6.562
	c0,3.705-2.449,5.746-4.992,6.154l5.15,8.229H115.725z M116.07,104.377c0-2.01-1.508-3.297-3.58-3.297h-5.055v6.656h5.055
	C114.562,107.736,116.07,106.418,116.07,104.377z"/>
    <path d="M121.533,115.838l2.072-2.857c1.412,1.539,3.705,2.922,6.625,2.922c3.016,0,4.178-1.477,4.178-2.891
	c0-4.397-12.184-1.664-12.184-9.357c0-3.486,3.014-6.154,7.631-6.154c3.234,0,5.902,1.066,7.818,2.951l-2.072,2.732
	c-1.664-1.664-3.895-2.418-6.092-2.418c-2.137,0-3.518,1.068-3.518,2.605c0,3.926,12.184,1.508,12.184,9.297
	c0,3.484-2.48,6.5-8.102,6.5C126.211,119.168,123.416,117.785,121.533,115.838z"/>
    <path d="M139.996,108.334c0-6.25,4.428-10.834,10.709-10.834c6.248,0,10.707,4.584,10.707,10.834
	c0,6.248-4.459,10.834-10.707,10.834C144.424,119.168,139.996,114.582,139.996,108.334z M157.644,108.334
	c0-4.334-2.732-7.568-6.939-7.568c-4.24,0-6.941,3.234-6.941,7.568c0,4.301,2.701,7.568,6.941,7.568
	C154.912,115.902,157.644,112.634,157.644,108.334z"/>
    <path d="M178.273,118.791l-10.928-14.98v14.98h-3.674V97.845h3.768l10.709,14.508V97.845h3.674v20.945H178.273z"/>
    <path d="M18.386,145.751l-1.538-4.051H7.238l-1.539,4.051H1.523l8.228-20.945h4.584l8.227,20.945H18.386z
	 M12.043,128.479l-3.769,9.986h7.537L12.043,128.479z"/>
    <path d="M36.786,145.751l-4.616-7.818h-3.674v7.818h-3.675v-20.945h9.202c4.145,0,6.877,2.67,6.877,6.562
	c0,3.707-2.449,5.748-4.993,6.156l5.149,8.227H36.786z M37.132,131.337c0-2.01-1.507-3.297-3.58-3.297h-5.056v6.658h5.056
	C35.625,134.698,37.132,133.378,37.132,131.337z"/>
    <path d="M43.662,135.294c0-6.469,4.805-10.834,10.99-10.834c4.207,0,6.846,2.168,8.385,4.68l-3.109,1.633
	c-1.004-1.758-3.045-3.047-5.275-3.047c-4.145,0-7.223,3.141-7.223,7.568c0,4.365,3.078,7.568,7.223,7.568
	c2.23,0,4.271-1.318,5.275-3.047l3.141,1.57c-1.602,2.514-4.209,4.742-8.416,4.742C48.467,146.128,43.662,141.731,43.662,135.294z"/>
    <path d="M79.93,145.751v-9.17H69.033v9.17h-3.674v-20.945h3.674v8.541H79.93v-8.541h3.674v20.945H79.93z"/>
    <path d="M87.434,145.751v-20.945h3.674v20.945H87.434z"/>
    <path d="M99.93,145.751V128.04h-6.342v-3.234h16.359v3.234h-6.344v17.711H99.93z"/>
    <path d="M111.799,145.751v-20.945h14.352v3.234h-10.678v5.402h10.457v3.234h-10.457v5.84h10.678v3.234H111.799z"/>
    <path d="M128.377,135.294c0-6.469,4.805-10.834,10.992-10.834c4.207,0,6.846,2.168,8.385,4.68l-3.109,1.633
	c-1.006-1.758-3.047-3.047-5.275-3.047c-4.146,0-7.223,3.141-7.223,7.568c0,4.365,3.076,7.568,7.223,7.568
	c2.229,0,4.27-1.318,5.275-3.047l3.141,1.57c-1.602,2.514-4.209,4.742-8.416,4.742C133.182,146.128,128.377,141.731,128.377,135.294
	z"/>
    <path d="M155.068,145.751V128.04h-6.344v-3.234h16.361v3.234h-6.344v17.711H155.068z"/>
    <path d="M165.367,142.8l2.072-2.857c1.412,1.539,3.705,2.92,6.625,2.92c3.016,0,4.178-1.477,4.178-2.889
	c0-4.396-12.184-1.664-12.184-9.357c0-3.486,3.014-6.156,7.631-6.156c3.234,0,5.902,1.068,7.818,2.953l-2.072,2.73
	c-1.664-1.664-3.894-2.418-6.092-2.418c-2.137,0-3.518,1.068-3.518,2.607c0,3.926,12.184,1.508,12.184,9.295
	c0,3.486-2.48,6.5-8.102,6.5C170.045,146.128,167.25,144.747,165.367,142.8z"/>
    <rect width="28.347" height="28.347" x="3.649" y="2.854"/>
    <rect width="28.347" height="28.348" x="3.649" y="36.869"/>
    <rect width="28.346" height="28.347" x="37.666" y="2.854"/>
    <rect width="28.346" height="28.348" x="37.666" y="36.869"/>
    <rect width="28.345" height="28.347" x="71.682" y="2.854"/>
    <rect width="28.345" height="28.348" x="71.682" y="36.869"/>
    <g/>
    <g/>
    <g/>
    <g/>
    <g/>
    <g/>
</svg>
