<svg xmlns="http://www.w3.org/2000/svg" viewBox="0 0 763.869 202.472" fill="var(--logo-color, #fefefe)" id="fortis-logo">
  <title>Fortis logo</title>
  <g>
    <polygon points="175.301 84.984 120.415 21.58 74.064 21.58 74.064 100.97 106.031 100.97 134.539 67.135 134.539 143.329 106.031 109.495 74.064 109.495 74.064 176.63 108.698 199.541 0 199.541 29.306 176.63 29.306 35.966 0 13.055 169.438 13.055 175.301 84.984"/>
    <path d="M266.509,137.2c0-38.63-8.261-66.867-26.375-66.867-15.452,0-22.648,21.578-22.648,57.276,0,38.63,8.26,66.87,26.379,66.87,15.451,0,22.644-21.58,22.644-57.279m45.556-4.794c0,42.625-28.776,70.066-70.867,70.066-44.224,0-69.265-30.639-69.265-70.066,0-42.361,28.772-70.067,70.863-70.067,44.229,0,69.269,30.638,69.269,70.067"/>
    <path d="M437.5,67.933l-11.991,43.692c-6.4-9.325-14.918-13.587-22.649-13.587-6.657,0-13.049,3.2-16.251,7.726v73.8L413.52,199.54H320.548l24.242-19.981V99.636L317.881,83.385l67.4-21.046v37.3c6.128-25.041,18.379-36.23,32.767-36.23A44.068,44.068,0,0,1,437.5,67.933"/>
    <path d="M508.9,202.472c-20.776,0-39.694-15.452-39.694-45.29V73.529H444.167l66.868-50.883V64.737H548.6l-2.4,8.792H511.035v73.8c0,19.447,10.388,30.1,24.242,30.1,5.6,0,11.991-1.865,18.383-5.86-10.922,20.779-27.972,30.9-44.758,30.9"/>
    <path d="M572.043,26.374C572.043,10.922,583.764,0,598.686,0a26.508,26.508,0,1,1-26.643,26.374M620.8,179.294l24.242,20.247h-90.31l24.242-20.247V100.171l-26.9-16.251L620.8,62.34Z"/>
    <path d="M735.627,105.765l-30.1-37.3A19.771,19.771,0,0,0,685.81,88.183c0,14.118,14.388,21.845,27.972,25.84,21.046,6.128,50.087,11.456,50.087,42.892,0,30.37-26.909,45.557-57.014,45.557-19.712,0-42.625-6.4-58.077-17.05l26.109-29.573,31.968,40.5c14.923,0,24.247-8.261,24.247-19.448,0-14.92-16.521-21.847-34.635-27.708-22.913-7.458-46.621-16.251-46.621-45.821,0-28.24,26.64-41.028,55.945-41.028,16.785,0,36.233,4,52.484,14.386Z"/>
  </g>
</svg>
