<svg xmlns="http://www.w3.org/2000/svg" width="72" height="299" viewBox="0 0 298.835 71.567">
    <title>
        Bower by Fortis
    </title>
    <filter id="inset-shadow" width="200%" height="200%" x="-50%" y="-50%">
        <feComponentTransfer in="SourceAlpha">
            <feFuncA tableValues="1 0" type="table"/>
        </feComponentTransfer>
        <feGaussianBlur stdDeviation="2"/>
        <feOffset dx="2" dy="2" result="offsetblur"/>
        <feFlood flood-color="black" flood-opacity=".4" result="color"/>
        <feComposite in2="offsetblur" operator="in"/>
        <feComposite in2="SourceAlpha" operator="in"/>
        <feMerge>
            <feMergeNode in="SourceGraphic"/>
            <feMergeNode/>
        </feMerge>
    </filter>
    <circle id="TheCircle" cx="70" cy="35.75" r="35.5" fill="white" stroke="transparent" stroke-width="10" class="is-home__hidden-if-clip-supported filter:inset-shadow"/>
    <path d="M145.6,24.719h5.914l-8.7,25.63h-4.28l-3.608-13.467-3.533,13.467h-4.315l-8.63-25.63h5.879l4.983,16.144c1.152-4.056,2.307-8.406,3.423-12.537H137.2l3.384,12.537Z" transform="translate(0 -1.75)"/>
    <polygon points="166.396 22.969 182.615 22.969 182.615 27.767 171.827 27.767 171.827 33.607 181.275 33.607 181.275 38.331 171.827 38.331 171.827 43.801 182.949 43.801 182.949 48.599 166.396 48.599 166.396 22.969"/>
    <path d="M207.135,29.517v7.219h4.614a3.41,3.41,0,0,0,3.234-3.608c0-1.6-1.041-3.611-3.085-3.611Zm13.5,20.832h-6.547L208.365,41.5h-1.23v8.854h-5.467V24.718h10.49c5.8,0,8.516,4.2,8.516,8.41a7.921,7.921,0,0,1-6.4,8.143Z" transform="translate(0 -1.75)"/>
    <path d="M5.467,39.339v6.213h5.246a2.913,2.913,0,0,0,2.755-3.163,2.876,2.876,0,0,0-2.865-3.05Zm4.279-4.5A2.421,2.421,0,0,0,12.128,32.2c0-1.6-.818-2.677-2.417-2.677H5.467v5.318Zm4.614,1.823a6.224,6.224,0,0,1,4.834,5.84c0,4.241-3.085,7.848-8.182,7.848H0V24.72H10.269c4.61,0,7.588,2.751,7.588,7.141a5.057,5.057,0,0,1-3.5,4.8" transform="translate(0 -1.75)"/>
    <g transform="translate(0 -1)">
        <path d="M249.9,42.089a1.726,1.726,0,0,0,1.279-.423,1.277,1.277,0,0,0,.377-.96c0-1.016-.718-1.521-1.727-1.521H247.3v2.9Zm-.263-3.853c1,0,1.589-.49,1.589-1.351,0-.8-.537-1.268-1.454-1.268H247.3v2.619Zm-3.5-3.625H249.8a2.746,2.746,0,0,1,2.033.721,2.051,2.051,0,0,1,.572,1.475,1.764,1.764,0,0,1-1.44,1.785v.031a2.061,2.061,0,0,1,1.785,2.048,2.3,2.3,0,0,1-.654,1.66,2.847,2.847,0,0,1-2.126.789h-3.831Z" transform="translate(0 -1.75)"/>
        <path d="M253.857,45.133v-.914h.046a1.5,1.5,0,0,0,.64.114c.423,0,.7-.16.917-.743a6.9,6.9,0,0,0,.217-.778l-2.346-5.833h1.155l1.269,3.409c.252.7.515,1.656.515,1.656h.022s.287-.97.526-1.656l1.226-3.409h1.109l-2.609,6.7c-.5,1.294-.995,1.578-1.784,1.578a3.048,3.048,0,0,1-.9-.124" transform="translate(0 -1.75)"/>
        <polygon points="268.4 33.107 270.931 36.029 270.661 32.716 262.852 32.716 264.203 33.772 264.203 40.251 262.852 41.307 267.86 41.307 266.264 40.251 266.264 37.159 267.739 37.159 269.051 38.716 269.051 35.207 267.739 36.764 266.264 36.764 266.264 33.107 268.4 33.107"/>
        <path d="M274.528,42.824c-.836,0-1.216-1.3-1.216-3.082,0-1.645.331-2.637,1.042-2.637.835,0,1.215,1.3,1.215,3.082,0,1.642-.33,2.637-1.041,2.637m-.05-6.089a3.07,3.07,0,0,0-3.267,3.228,3.032,3.032,0,0,0,3.192,3.231,3.066,3.066,0,0,0,3.267-3.231,3.029,3.029,0,0,0-3.192-3.228" transform="translate(0 -1.75)"/>
        <path d="M281,38.454v-1.72l-3.107.97,1.24.75v3.682l-1.116.921H282.3l-1.24-.921v-3.4a.952.952,0,0,1,.75-.356,1.3,1.3,0,0,1,1.041.626l.555-2.012a2,2,0,0,0-.9-.21c-.665,0-1.23.516-1.51,1.671" transform="translate(0 -1.75)"/>
        <path d="M286.988,40.651v-3.4h1.621l.11-.406h-1.731V34.907l-3.081,2.343h1.155v3.856a1.87,1.87,0,0,0,1.827,2.087,2.377,2.377,0,0,0,2.062-1.426,1.6,1.6,0,0,1-.846.27c-.637,0-1.117-.49-1.117-1.386" transform="translate(0 -1.75)"/>
        <polygon points="292.243 34.985 289.076 35.981 290.317 36.731 290.317 40.374 289.197 41.309 293.359 41.309 292.243 40.374 292.243 34.985"/>
        <path d="M291.224,36.306a1.221,1.221,0,0,0,0-2.442A1.189,1.189,0,0,0,290,35.079a1.216,1.216,0,0,0,1.226,1.227" transform="translate(0 -1.75)"/>
        <path d="M296.528,39.117c-.626-.185-1.29-.541-1.29-1.191a.915.915,0,0,1,.909-.91l1.387,1.72,1.045-1.34a4.591,4.591,0,0,0-2.421-.661c-1.351,0-2.577.59-2.577,1.891,0,1.361,1.095,1.767,2.147,2.111.835.27,1.6.59,1.6,1.276,0,.516-.427.9-1.116.9l-1.472-1.866-1.2,1.365a5.032,5.032,0,0,0,2.676.785c1.386,0,2.627-.7,2.627-2.1,0-1.447-1.337-1.7-2.307-1.976" transform="translate(0 -1.75)"/>
    </g>
</svg>
