<svg xmlns="http://www.w3.org/2000/svg" viewBox="0 0 140.851 2.488" preserveAspectRatio="none">
  <path d="M0,1.283c3.069-.107,6.062-.3,9.056-.3,5.646,0,11.315-.195,16.933.233,7.781.593,15.519.092,23.277-.092,3.91-.093,7.827.139,11.741.135,4.555,0,9.109-.106,13.664-.166C81.794,1,88.917.887,96.041.818c6.67-.064,13.342-.007,20.011-.144,3.91-.081,7.811-.552,11.721-.64,4.341-.1,8.686.042,13.078.079-.162,1.322-.933,1.422-2.036,1.386-4.681-.156-9.366-.319-14.046-.265-4.354.05-8.7.448-13.057.552-4.677.111-9.358.028-14.037.086-4.3.053-8.593.2-12.891.272-7.762.129-15.524.266-23.287.326-2.43.019-4.863-.3-7.294-.284-5.766.038-11.532.248-17.3.265-3.591.011-7.181-.245-10.773-.307C21.587,2.066,17.04,2,12.5,2.051c-3.588.045-7.172.308-10.76.42C1.061,2.492.136,2.659,0,1.283" fill="#111"/>
</svg>
