<svg xmlns="http://www.w3.org/2000/svg" viewBox="0 0 30 30">
  <title>Instagram</title>
  <path d="M29.91,8.816a11.006,11.006,0,0,0-.7-3.641,7.351,7.351,0,0,0-1.73-2.657A7.343,7.343,0,0,0,24.826.788a11.011,11.011,0,0,0-3.641-.7C19.585.017,19.074,0,15,0S10.415.017,8.816.09a11.006,11.006,0,0,0-3.641.7,7.351,7.351,0,0,0-2.657,1.73A7.343,7.343,0,0,0,.788,5.174a11.011,11.011,0,0,0-.7,3.641C.017,10.415,0,10.926,0,15s.017,4.585.09,6.184a11.006,11.006,0,0,0,.7,3.641,7.351,7.351,0,0,0,1.73,2.657,7.343,7.343,0,0,0,2.657,1.73,11.011,11.011,0,0,0,3.641.7c1.6.074,2.111.091,6.185.091s4.585-.017,6.184-.09a11.006,11.006,0,0,0,3.641-.7,7.668,7.668,0,0,0,4.387-4.387,11.011,11.011,0,0,0,.7-3.641c.074-1.6.091-2.111.091-6.185S29.983,10.415,29.91,8.816Zm-2.7,12.245a8.318,8.318,0,0,1-.516,2.785,4.966,4.966,0,0,1-2.847,2.847,8.3,8.3,0,0,1-2.785.516c-1.581.072-2.056.087-6.061.087s-4.48-.015-6.061-.087a8.318,8.318,0,0,1-2.785-.516A4.648,4.648,0,0,1,4.43,25.571a4.648,4.648,0,0,1-1.122-1.725,8.3,8.3,0,0,1-.516-2.785C2.72,19.479,2.705,19.005,2.705,15s.015-4.48.087-6.061a8.318,8.318,0,0,1,.516-2.785A4.648,4.648,0,0,1,4.43,4.429,4.648,4.648,0,0,1,6.155,3.307,8.3,8.3,0,0,1,8.94,2.791C10.522,2.719,11,2.7,15,2.7s4.48.015,6.061.087a8.318,8.318,0,0,1,2.785.516,4.648,4.648,0,0,1,1.725,1.122,4.648,4.648,0,0,1,1.122,1.725,8.3,8.3,0,0,1,.516,2.785C27.282,10.521,27.3,11,27.3,15S27.282,19.48,27.21,21.061ZM15,7.3A7.7,7.7,0,1,0,22.7,15,7.7,7.7,0,0,0,15,7.3ZM15,20a5,5,0,1,1,5-5A5,5,0,0,1,15,20ZM23.007,5.193a1.8,1.8,0,1,0,1.8,1.8A1.8,1.8,0,0,0,23.007,5.193Z"/>
</svg>
