<svg xmlns="http://www.w3.org/2000/svg" viewBox="0 0 30 30" height="30" width="30"><path d="M29.91 8.816a11.006 11.006 0 00-.7-3.641 7.351 7.351 0 00-1.73-2.657 7.343 7.343 0 00-2.654-1.73 11.011 11.011 0 00-3.641-.7C19.585.017 19.074 0 15 0s-4.585.017-6.184.09a11.006 11.006 0 00-3.641.7 7.351 7.351 0 00-2.657 1.73 7.343 7.343 0 00-1.73 2.654 11.011 11.011 0 00-.7 3.641C.017 10.415 0 10.926 0 15s.017 4.585.09 6.184a11.006 11.006 0 00.7 3.641 7.351 7.351 0 001.73 2.657 7.343 7.343 0 002.657 1.73 11.011 11.011 0 003.641.7c1.6.074 2.111.091 6.185.091s4.585-.017 6.184-.09a11.006 11.006 0 003.641-.7 7.668 7.668 0 004.387-4.387 11.011 11.011 0 00.7-3.641c.074-1.6.091-2.111.091-6.185s-.023-4.585-.096-6.184zm-2.7 12.245a8.318 8.318 0 01-.516 2.785 4.966 4.966 0 01-2.847 2.847 8.3 8.3 0 01-2.785.516c-1.581.072-2.056.087-6.061.087s-4.48-.015-6.061-.087a8.318 8.318 0 01-2.785-.516 4.648 4.648 0 01-1.725-1.122 4.648 4.648 0 01-1.122-1.725 8.3 8.3 0 01-.516-2.785c-.072-1.582-.087-2.056-.087-6.061s.015-4.48.087-6.061a8.318 8.318 0 01.516-2.785A4.648 4.648 0 014.43 4.429a4.648 4.648 0 011.725-1.122 8.3 8.3 0 012.785-.516C10.522 2.719 11 2.7 15 2.7s4.48.015 6.061.087a8.318 8.318 0 012.785.516 4.648 4.648 0 011.725 1.122 4.648 4.648 0 011.122 1.725 8.3 8.3 0 01.516 2.785C27.282 10.521 27.3 11 27.3 15s-.018 4.48-.09 6.061zM15 7.3a7.7 7.7 0 107.7 7.7A7.7 7.7 0 0015 7.3zM15 20a5 5 0 115-5 5 5 0 01-5 5zm8.007-14.807a1.8 1.8 0 101.8 1.8 1.8 1.8 0 00-1.8-1.8z"/></svg>
