<svg xmlns="http://www.w3.org/2000/svg" viewBox="0 0 120 64" height="64" width="120"><path d="M21.327 16.97l-3.321-3.837H15.2v4.804h1.935l1.725-2.047v4.611l-1.725-2.048H15.2v4.063l2.096 1.387h-6.578l1.774-1.387v-8.512l-1.774-1.387h10.254l.355 4.353zM30.179 19.84a4.025 4.025 0 01-4.289 4.24 3.98 3.98 0 01-4.19-4.24 4.032 4.032 0 014.289-4.24 3.979 3.979 0 014.192 4.24m-2.757.29c0-2.338-.5-4.047-1.6-4.047-.935 0-1.371 1.306-1.371 3.467 0 2.337.5 4.046 1.6 4.046.936 0 1.371-1.306 1.371-3.466M37.709 15.938l-.726 2.644a1.7 1.7 0 00-1.37-.822 1.232 1.232 0 00-.984.467v4.466l1.629 1.207h-5.627l1.469-1.207v-4.837l-1.628-.983 4.077-1.273v2.257c.37-1.515 1.112-2.192 1.983-2.192a2.672 2.672 0 011.177.274M42.289 24.08a2.457 2.457 0 01-2.4-2.741v-5.062h-1.517l4.046-3.08v2.548h2.273l-.145.532h-2.128v4.466c0 1.176.629 1.821 1.467 1.821A2.133 2.133 0 0045 22.21a3.133 3.133 0 01-2.709 1.87M49.318 22.677l1.468 1.223H45.32l1.467-1.225v-4.786l-1.628-.984 4.159-1.305zm-2.95-9.254a1.563 1.563 0 011.612-1.6 1.6 1.6 0 11-1.612 1.6M56.268 18.228l-1.822-2.257a1.2 1.2 0 00-1.193 1.193c0 .854.871 1.322 1.693 1.564 1.274.371 3.031.693 3.031 2.595 0 1.838-1.628 2.757-3.45 2.757a6.6 6.6 0 01-3.515-1.032l1.58-1.789 1.935 2.451c.9 0 1.467-.5 1.467-1.177 0-.9-1-1.323-2.1-1.677-1.386-.452-2.821-.984-2.821-2.773 0-1.709 1.612-2.483 3.385-2.483a5.991 5.991 0 013.177.871zM22.568 31.791c0 2.917-2.176 5.965-6.5 5.965h-5.35l1.774-1.386v-8.513l-1.774-1.386h6.272a5.2 5.2 0 015.578 5.32m-2.934.692c0-2.854-1.435-5.5-3.917-5.5H15.2v10.24h.6c2.628 0 3.837-2.127 3.837-4.74M31.308 34.612c-.258 1.128-1 3.321-3.547 3.321a3.93 3.93 0 01-3.961-4.192 4.084 4.084 0 014.063-4.288c1.983 0 3.208 1.209 3.385 3.482H25.73a2.829 2.829 0 002.97 2.822 3.5 3.5 0 002.612-1.145M25.73 32.4h2.918a3.566 3.566 0 00.064-.677c0-1.032-.338-1.822-1.112-1.822-1.08 0-1.79 1.193-1.87 2.5M36.387 37.755l-3.321-6.223-1.596-.661 3.483-1.418 2.724 5.449 1.805-3.66-2.74-1.645h4.175l-4.224 8.158h-.306zM48.4 34.612c-.258 1.128-1 3.321-3.547 3.321a3.929 3.929 0 01-3.965-4.192 4.084 4.084 0 014.062-4.288c1.984 0 3.209 1.209 3.386 3.482h-5.515a2.829 2.829 0 002.967 2.822 3.5 3.5 0 002.612-1.145M42.821 32.4h2.918a3.493 3.493 0 00.065-.677c0-1.032-.339-1.822-1.113-1.822-1.08 0-1.789 1.193-1.87 2.5M52.479 36.53l1.467 1.226h-5.465l1.467-1.226v-8.303l-1.628-.983 4.159-1.306V36.53zM62.491 33.692a4.023 4.023 0 01-4.288 4.24 3.979 3.979 0 01-4.192-4.24 4.031 4.031 0 014.289-4.239 3.979 3.979 0 014.192 4.239m-2.757.291c0-2.338-.5-4.047-1.6-4.047-.935 0-1.37 1.306-1.37 3.467 0 2.337.5 4.046 1.595 4.046.936 0 1.371-1.306 1.371-3.466M72.3 33.467c0 2.063-1.209 4.288-3.966 4.288a2.979 2.979 0 01-1.5-.354v2.385L68.6 40.98h-5.769l1.469-1.194v-8.077l-1.628-.983 4.079-1.274v1.661a2.217 2.217 0 012.257-1.661c2.1 0 3.289 1.951 3.289 4.015m-2.564.725c0-1.935-.838-2.886-1.886-2.886a2.168 2.168 0 00-1.016.258v4.014c0 1.049.452 1.677 1.145 1.677.951 0 1.757-1.145 1.757-3.063M84.064 36.53v-3.789a1.338 1.338 0 00-1.306-1.5 1.86 1.86 0 00-1.063.339v4.95l1.144 1.226h-4.821l1.145-1.226v-3.789a1.329 1.329 0 00-1.3-1.5 1.669 1.669 0 00-1.065.4v4.889l1.145 1.226H72.8l1.467-1.226v-4.82l-1.628-.984 4.079-1.273v1.8a3.189 3.189 0 012.66-1.8 2.089 2.089 0 012.177 1.789 2.669 2.669 0 012.611-1.789c1.306 0 2.434.919 2.434 2.789v4.288l1.468 1.226H82.92zM95.61 34.612c-.258 1.128-1 3.321-3.546 3.321a3.93 3.93 0 01-3.964-4.192 4.085 4.085 0 014.063-4.288c1.983 0 3.208 1.209 3.386 3.482h-5.517A2.829 2.829 0 0093 35.757a3.5 3.5 0 002.611-1.145M90.032 32.4h2.918a3.486 3.486 0 00.064-.677c0-1.032-.338-1.822-1.112-1.822-1.08 0-1.79 1.193-1.87 2.5M106.7 37.755h-5.288l1.288-1.225v-3.773a1.365 1.365 0 00-1.386-1.515 1.972 1.972 0 00-1.258.467v4.821l1.291 1.225h-5.285l1.467-1.225v-4.821l-1.629-.983 4.079-1.273v1.837a3.209 3.209 0 012.757-1.837 2.513 2.513 0 012.5 2.789v4.288zM109.7 37.933a2.457 2.457 0 01-2.4-2.741V30.13h-1.515l4.046-3.079V29.6h2.273l-.145.532h-2.128V34.6c0 1.176.629 1.821 1.467 1.821a2.145 2.145 0 001.113-.354 3.133 3.133 0 01-2.709 1.87M21.181 45.579v6.03l-2.225-1.467a3.977 3.977 0 01-3.095 1.725c-2.515 0-5.127-2.386-5.127-5.949a5.755 5.755 0 015.981-5.869 7.854 7.854 0 014.644 1.467l-2.112 2.241-3.032-3.224a4.112 4.112 0 00-3.288 4.353c0 2.483 1.757 5.191 4.691 5.191a3.443 3.443 0 00.855-.1v-4l-2.644 1.6v-2zM29.26 43.644l-.725 2.644a1.706 1.706 0 00-1.371-.822 1.23 1.23 0 00-.983.467V50.4l1.628 1.209h-5.627l1.467-1.209v-4.838l-1.627-.983 4.078-1.274v2.257c.37-1.515 1.112-2.192 1.982-2.192a2.672 2.672 0 011.177.274M38.322 47.545a4.024 4.024 0 01-4.289 4.24 3.979 3.979 0 01-4.192-4.24 4.033 4.033 0 014.289-4.24 3.98 3.98 0 014.192 4.24m-2.757.291c0-2.338-.5-4.047-1.6-4.047-.935 0-1.371 1.306-1.371 3.466 0 2.338.5 4.047 1.6 4.047.935 0 1.371-1.306 1.371-3.466M45.271 51.867v-1.918a2.96 2.96 0 01-2.483 1.837 2.5 2.5 0 01-2.515-2.772V45.6l-1.628-.984 4.155-1.31v5.143c0 .951.549 1.515 1.241 1.515a1.93 1.93 0 001.146-.435V45.6l-1.629-.984 4.159-1.306v6.3l1.629.983z"/><path d="M58.267 47.32c0 2.064-1.209 4.289-3.966 4.289a2.975 2.975 0 01-1.5-.355v2.386l1.773 1.194H48.8l1.468-1.194v-8.077l-1.629-.984 4.08-1.273v1.661a2.215 2.215 0 012.256-1.661c2.1 0 3.289 1.951 3.289 4.014m-2.563.726c0-1.934-.838-2.885-1.887-2.885a2.16 2.16 0 00-1.015.257v4.015c0 1.047.452 1.676 1.145 1.676.951 0 1.757-1.145 1.757-3.063"/></svg>
