<svg xmlns="http://www.w3.org/2000/svg" viewBox="0 0 120 64" height="64" width="120"><path d="M16.369 29.424v-7.5h5.31v1.406h-3.713v1.586H21.6v1.407h-3.634v1.7h3.713v1.407zm18.662 0l-1.316-5.153-1.305 5.153h-1.7l-2.149-7.5h1.79l1.315 5.423L33.1 21.92h1.248l1.417 5.423 1.306-5.423h1.8l-2.138 7.5zm10.193 0v-7.5h5.31v1.406h-3.713v1.586h3.634v1.407h-3.634v1.7h3.713v1.407zm18.092 0l-1.473-2.667h-1.17v2.667h-1.6v-7.5h3.511a2.336 2.336 0 012.519 2.418 2.152 2.152 0 01-1.642 2.228l1.688 2.858zm.158-5.086a1.019 1.019 0 00-1.125-1.012h-1.676v2.026h1.676a1.02 1.02 0 001.125-1.014m14.91-2.494h-6.419v1.3h2.413v6.213h1.6v-6.208h2.409zm25.244 0H84.1v1.3h19.531zM59.187 40.736v-7.5h1.6v6.1h3.172v1.406zm13.464 0v-7.5h5.31v1.407h-3.713v1.586h3.634v1.406h-3.634v1.7h3.713v1.406zm17.89 0l-.461-1.271h-3.217l-.473 1.271h-1.823l2.9-7.5h2l2.892 7.5zm-2.069-5.906L87.3 38.059h2.34zm9.637 5.906v-7.5h5.31v1.407h-3.713v1.586h3.634v1.406h-3.634v3.1zm-47.671-1.4H16.423v1.4h34.015z"/></svg>
