<svg xmlns="http://www.w3.org/2000/svg" xmlns:xlink="http://www.w3.org/1999/xlink" viewBox="0 0 120 64">
  <title>logo-rt-edgar</title>
  <g>
      <path d="M18.931,29.274c2.089-.157,4.178-1.056,4.178-3.482,0-2.314-2.157-2.943-4.178-2.943Zm-2.965-2.943c0-3.033-.157-3.46-2.965-3.684v-.629h6.985c2.764,0,6.493,0,6.493,3.572a4.129,4.129,0,0,1-2.921,3.684c1.663,3.28,3.977,6.784,7.683,7.661l-.09.628c-2-.112-4.312.09-6.064-1.123a14.106,14.106,0,0,1-3.123-4.178c-1.057-2.022-.9-1.887-3.033-2.2v2.247c0,3.055-.134,4.088,3.482,4.358v.629H13v-.629c2.673-.449,2.965-.292,2.965-4.358Z"/>
      <path d="M28.929,26.353l.517-5.055h.471a1.269,1.269,0,0,0,.877.674,6.286,6.286,0,0,0,1.145.045h9.5c.809,0,1.573.112,2.022-.719h.472l.516,5.055-.629.112c-.9-3.19-2.561-3.5-5.661-3.5v9.345c0,4.066.292,3.909,3.37,4.358v.63h-9.7v-.63c3.078-.449,3.37-.292,3.37-4.358V22.961c-3.1,0-4.718.314-5.639,3.5Z"/>
      <path d="M54.7,30.038V33c0,2.292.022,3.348,3.01,3.348,2.921,0,4.179-1.64,4.808-4.224h.674a15.629,15.629,0,0,1-.809,5.167H48.767v-.629c2.674-.449,2.966-.292,2.966-4.358v-5.3c0-4.066-.292-3.909-2.966-4.358v-.63h13.3l-.427,3.932h-.7c-.157-2.942-2.156-2.987-4.6-2.987H54.7V28.69h1.91c1.932,0,2.943-.157,3.5-2.2H60.7a48.507,48.507,0,0,0-.09,5.706h-.629c-.449-2.2-1.5-2.157-3.459-2.157Z"/>
      <path d="M72.132,31.5c0-1.842-1.056-3.505-2.808-3.505-1.8,0-2.471,2.09-2.471,3.55,0,1.932,1.033,4.4,3.347,4.4a2.525,2.525,0,0,0,1.932-.786Zm2.651-10.042V33.7c0,2.516-.045,2.516,2.067,2.4l.067.54-4.852,1.033.067-1.775a4.531,4.531,0,0,1-8.065-3.122c0-2.629,2-5.729,5.077-5.729a19.169,19.169,0,0,1,2.988.314V25.208c0-1.573,0-1.213-1.393-2.2v-.359l3.64-1.528Z"/>
      <path d="M80,30.307c0,1.146.54,3.078,2,3.078,1.3,0,1.685-1.5,1.685-2.539,0-1.168-.517-3.078-2.022-3.078C80.4,27.768,80,29.341,80,30.307m.742,7.526a2.279,2.279,0,0,0-1.371,1.842c0,1.505,2.067,2.044,3.258,2.044,1.415,0,3.617-.539,3.617-2.269,0-1.505-1.258-1.707-2.516-1.707ZM88.713,29l-2.808-.135a2.492,2.492,0,0,1,.427,1.483c0,2.426-2.292,3.752-4.516,3.752a9.085,9.085,0,0,1-1.572-.18,1.788,1.788,0,0,0-.472.943c0,2.292,8.582-1.28,8.582,3.3,0,3.28-5.033,4.83-7.751,4.83-1.46,0-3.886-.539-3.886-2.427,0-1.392,1.909-2.269,3.055-2.718V37.81c-.944-.157-2.449-.7-2.449-1.864,0-.787,1.64-1.573,2.4-2.224a3.3,3.3,0,0,1-2.381-3.011c0-2.493,2.426-3.661,4.65-3.661a6.605,6.605,0,0,1,3.078.718h3.639Z"/>
      <path d="M91.5,33.632a5.476,5.476,0,0,0-.157,1.011c0,.9.4,1.662,1.415,1.662a1.872,1.872,0,0,0,1.213-.449V32.329Zm2.471-1.91c0-1.73-.022-3.28-1.954-3.28-1.124,0-1.011.786-1.011,1.64v.382l-1.888.135c-.224,0-.561,0-.561-.27,0-.809,3.168-3.28,5.279-3.28,2.516,0,2.786,2.7,2.786,4.718v2.718c0,1.438.269,1.416,1.842,1.932v.494a16.232,16.232,0,0,1-2.83.7,1.365,1.365,0,0,1-1.528-1.236,5.119,5.119,0,0,1-3.123,1.236,2.391,2.391,0,0,1-2.426-2.494,3.673,3.673,0,0,1,.2-1.19Z"/>
      <path d="M102.89,26.915l.359.337-.269,2.494.045.045c.786-1.124,1.887-2.741,3.482-2.741a1.424,1.424,0,0,1,1.438,1.28c0,.944-1.011,1.82-1.8,2.2-.36-.472-.877-1.236-1.528-1.236-1.3,0-1.371,1.595-1.371,2.539v2.628c0,1.843,0,1.8,2.494,2.292v.539H98.891v-.539c1.708-.449,1.708-.517,1.708-2.292V31c0-1.573,0-1.213-1.348-2.2v-.359Z"/>

  </g>
</svg>
