<svg xmlns="http://www.w3.org/2000/svg" viewBox="0 0 120 64">

  <title>Ewart Leaf</title>
  <g style="isolation: isolate">
    <g>

      <path d="M16.369,29.424v-7.5h5.31v1.406H17.966v1.586H21.6v1.407H17.966v1.7h3.713v1.407Zm18.662,0-1.316-5.153L32.41,29.424h-1.7l-2.149-7.5h1.79l1.315,5.423L33.1,21.92h1.248l1.417,5.423,1.306-5.423h1.8l-2.138,7.5Zm10.193,0v-7.5h5.31v1.406H46.821v1.586h3.634v1.407H46.821v1.7h3.713v1.407Zm18.092,0-1.473-2.667h-1.17v2.667h-1.6v-7.5h3.511a2.336,2.336,0,0,1,2.519,2.418,2.152,2.152,0,0,1-1.642,2.228l1.688,2.858Zm.158-5.086a1.019,1.019,0,0,0-1.125-1.012H60.673v2.026h1.676a1.02,1.02,0,0,0,1.125-1.014m14.91-2.494-6.419,0v1.3h2.413v6.213h1.6V23.149h2.409Zm25.244,0H84.1v1.3h19.531ZM59.187,40.736v-7.5h1.6v6.1h3.172v1.406Zm13.464,0v-7.5h5.31v1.407H74.248v1.586h3.634v1.406H74.248v1.7h3.713v1.406Zm17.89,0-.461-1.271H86.863l-.473,1.271H84.567l2.9-7.5h2l2.892,7.5ZM88.472,34.83,87.3,38.059h2.34Zm9.637,5.906v-7.5h5.31v1.407H99.706v1.586h3.634v1.406H99.706v3.1Zm-47.671-1.4H16.423v1.4H50.438Z" />

    </g>
  </g>
</svg>
