<svg xmlns="http://www.w3.org/2000/svg" viewBox="0 0 646.299 297.638" width="323" height="149"><path fill="none" d="M0 0h646.299v297.638H0z"/><path d="M92.9 164.537a81.572 81.572 0 01-5.78-30.9 81.592 81.592 0 015.78-30.9 77.365 77.365 0 0111.915-20.178 70.193 70.193 0 00-9.395 8.01 76.236 76.236 0 00-15.974 24.8 85.465 85.465 0 000 61.792 76.151 76.151 0 0015.974 24.8 72.857 72.857 0 0024.485 16.5 80.2 80.2 0 0031.317 5.991 80.208 80.208 0 0031.316-5.991 72.931 72.931 0 0024.486-16.5c1.431-1.475 2.759-3.036 4.059-4.623A75.771 75.771 0 01196 205.837a80.229 80.229 0 01-31.316 5.99 80.22 80.22 0 01-31.317-5.99 72.872 72.872 0 01-24.485-16.5 76.172 76.172 0 01-15.974-24.8m123.9-7.882a68.3 68.3 0 000-46.029 56.121 56.121 0 00-11.35-18.811 55.735 55.735 0 00-81.549 0 53.618 53.618 0 00-3.549 4.285 57.251 57.251 0 017.745-4.367A54.759 54.759 0 01151.225 87 54.088 54.088 0 01192 104.448a56.107 56.107 0 0111.35 18.81 68.3 68.3 0 010 46.029 57.381 57.381 0 01-7.806 14.528 53.524 53.524 0 009.91-8.349 56.052 56.052 0 0011.35-18.811m131.148 51.389H299.4V79.5l-13.454 17.218v123.958H334.5q19.965 0 35.2-6.3a76.651 76.651 0 0025.537-16.709q2.565-2.592 4.816-5.367a81.864 81.864 0 01-16.9 9.443q-15.242 6.3-35.2 6.306m55.067-50.128q5.045-10.4 5.044-24.276a72.5 72.5 0 00-2.312-16.708 50.1 50.1 0 00-8.722-18.181 51.756 51.756 0 00-17.76-14.608q-11.35-5.989-29.425-5.99h-30.268v12.628h16.812q18.073 0 29.425 5.99a51.754 51.754 0 0117.76 14.607 50.1 50.1 0 018.722 18.181 72.5 72.5 0 012.312 16.709q0 13.872-5.044 24.276a52.341 52.341 0 01-4.925 8.092 55.012 55.012 0 004.717-3.385 49.821 49.821 0 0013.662-17.34m169.027 50.128h-82.014V79.657l-13.454 17.22v123.8h85.6zm-61.837-53.994h46.761l9.87-12.633h-56.631zm51.7-63.264l9.87-12.633h-61.57v12.633z" fill="#fff"/></svg>