<svg xmlns="http://www.w3.org/2000/svg" viewBox="0 0 646.299 297.638" width="323" height="149">
  <title>Ode</title>
  <g>
    <rect width="646.299" height="297.638" fill="none"/>
    <path d="M92.9,164.537a81.572,81.572,0,0,1-5.78-30.9,81.592,81.592,0,0,1,5.78-30.9,77.365,77.365,0,0,1,11.915-20.178,70.193,70.193,0,0,0-9.395,8.01,76.236,76.236,0,0,0-15.974,24.8,85.465,85.465,0,0,0,0,61.792,76.151,76.151,0,0,0,15.974,24.8,72.857,72.857,0,0,0,24.485,16.5,80.2,80.2,0,0,0,31.317,5.991,80.208,80.208,0,0,0,31.316-5.991,72.931,72.931,0,0,0,24.486-16.5c1.431-1.475,2.759-3.036,4.059-4.623A75.771,75.771,0,0,1,196,205.837a80.229,80.229,0,0,1-31.316,5.99,80.22,80.22,0,0,1-31.317-5.99,72.872,72.872,0,0,1-24.485-16.5,76.172,76.172,0,0,1-15.974-24.8m123.9-7.882a68.3,68.3,0,0,0,0-46.029,56.121,56.121,0,0,0-11.35-18.811,55.735,55.735,0,0,0-81.549,0A53.618,53.618,0,0,0,120.36,96.1a57.251,57.251,0,0,1,7.745-4.367A54.759,54.759,0,0,1,151.225,87,54.088,54.088,0,0,1,192,104.448a56.107,56.107,0,0,1,11.35,18.81,68.3,68.3,0,0,1,0,46.029,57.381,57.381,0,0,1-7.806,14.528,53.524,53.524,0,0,0,9.91-8.349,56.052,56.052,0,0,0,11.35-18.811m131.148,51.389H299.4V79.5L285.946,96.718V220.676H334.5q19.965,0,35.2-6.3a76.651,76.651,0,0,0,25.537-16.709q2.565-2.592,4.816-5.367a81.864,81.864,0,0,1-16.9,9.443q-15.242,6.3-35.2,6.306m55.067-50.128q5.045-10.4,5.044-24.276a72.5,72.5,0,0,0-2.312-16.708,50.1,50.1,0,0,0-8.722-18.181,51.756,51.756,0,0,0-17.76-14.608q-11.35-5.989-29.425-5.99H319.577V90.786h16.812q18.073,0,29.425,5.99a51.754,51.754,0,0,1,17.76,14.607,50.1,50.1,0,0,1,8.722,18.181,72.5,72.5,0,0,1,2.312,16.709q0,13.872-5.044,24.276a52.341,52.341,0,0,1-4.925,8.092,55.012,55.012,0,0,0,4.717-3.385,49.821,49.821,0,0,0,13.662-17.34m169.027,50.128H490.031V79.657l-13.454,17.22v123.8h85.6ZM510.208,154.05h46.761l9.87-12.633H510.208Zm51.7-63.264,9.87-12.633H510.208V90.786Z" fill="#fff"/>
  </g>
</svg>
