<svg xmlns="http://www.w3.org/2000/svg" xmlns:xlink="http://www.w3.org/1999/xlink" viewBox="0 0 120 64">
  <defs>
    <clipPath id="a">
      <rect x="6" y="6.672" width="108" height="51.328" fill="none"/>
    </clipPath>
  </defs>
  <title>Fortis Development Group</title>
  <g>
    <polygon points="21.327 16.97 18.006 13.133 15.2 13.133 15.2 17.937 17.135 17.937 18.86 15.89 18.86 20.501 17.135 18.453 15.2 18.453 15.2 22.516 17.296 23.903 10.718 23.903 12.492 22.516 12.492 14.004 10.718 12.617 20.972 12.617 21.327 16.97"/>
      <path d="M30.179,19.84a4.025,4.025,0,0,1-4.289,4.24A3.98,3.98,0,0,1,21.7,19.84a4.032,4.032,0,0,1,4.289-4.24,3.979,3.979,0,0,1,4.192,4.24m-2.757.29c0-2.338-.5-4.047-1.6-4.047-.935,0-1.371,1.306-1.371,3.467,0,2.337.5,4.046,1.6,4.046.936,0,1.371-1.306,1.371-3.466"/>
      <path d="M37.709,15.938l-.726,2.644a1.7,1.7,0,0,0-1.37-.822,1.232,1.232,0,0,0-.984.467v4.466L36.258,23.9H30.631L32.1,22.693V17.856l-1.628-.983L34.549,15.6v2.257c.37-1.515,1.112-2.192,1.983-2.192a2.672,2.672,0,0,1,1.177.274"/>
      <path d="M42.289,24.08a2.457,2.457,0,0,1-2.4-2.741V16.277H38.372l4.046-3.08v2.548h2.273l-.145.532H42.418v4.466c0,1.176.629,1.821,1.467,1.821A2.133,2.133,0,0,0,45,22.21a3.133,3.133,0,0,1-2.709,1.87"/>
      <path d="M49.318,22.677,50.786,23.9H45.32l1.467-1.225V17.889l-1.628-.984L49.318,15.6Zm-2.95-9.254a1.563,1.563,0,0,1,1.612-1.6,1.6,1.6,0,1,1-1.612,1.6"/>
      <path d="M56.268,18.228l-1.822-2.257a1.2,1.2,0,0,0-1.193,1.193c0,.854.871,1.322,1.693,1.564,1.274.371,3.031.693,3.031,2.595,0,1.838-1.628,2.757-3.45,2.757a6.6,6.6,0,0,1-3.515-1.032l1.58-1.789,1.935,2.451c.9,0,1.467-.5,1.467-1.177,0-.9-1-1.323-2.1-1.677-1.386-.452-2.821-.984-2.821-2.773,0-1.709,1.612-2.483,3.385-2.483a5.991,5.991,0,0,1,3.177.871Z"/>
      <path d="M22.568,31.791c0,2.917-2.176,5.965-6.5,5.965H10.718l1.774-1.386V27.857l-1.774-1.386H16.99a5.2,5.2,0,0,1,5.578,5.32m-2.934.692c0-2.854-1.435-5.5-3.917-5.5H15.2V37.223h.6c2.628,0,3.837-2.127,3.837-4.74"/>
      <path d="M31.308,34.612c-.258,1.128-1,3.321-3.547,3.321A3.93,3.93,0,0,1,23.8,33.741a4.084,4.084,0,0,1,4.063-4.288c1.983,0,3.208,1.209,3.385,3.482H25.73A2.829,2.829,0,0,0,28.7,35.757a3.5,3.5,0,0,0,2.612-1.145M25.73,32.4h2.918a3.566,3.566,0,0,0,.064-.677c0-1.032-.338-1.822-1.112-1.822-1.08,0-1.79,1.193-1.87,2.5"/>
      <polygon points="36.387 37.755 33.066 31.532 31.47 30.871 34.953 29.453 37.677 34.902 39.482 31.242 36.742 29.597 40.917 29.597 36.693 37.755 36.387 37.755"/>
      <path d="M48.4,34.612c-.258,1.128-1,3.321-3.547,3.321a3.929,3.929,0,0,1-3.965-4.192,4.084,4.084,0,0,1,4.062-4.288c1.984,0,3.209,1.209,3.386,3.482H42.821a2.829,2.829,0,0,0,2.967,2.822A3.5,3.5,0,0,0,48.4,34.612M42.821,32.4h2.918a3.493,3.493,0,0,0,.065-.677c0-1.032-.339-1.822-1.113-1.822-1.08,0-1.789,1.193-1.87,2.5"/>
      <polygon points="52.479 36.53 53.946 37.756 48.481 37.756 49.948 36.53 49.948 28.227 48.32 27.244 52.479 25.938 52.479 36.53"/>
      <path d="M62.491,33.692a4.023,4.023,0,0,1-4.288,4.24,3.979,3.979,0,0,1-4.192-4.24A4.031,4.031,0,0,1,58.3,29.453a3.979,3.979,0,0,1,4.192,4.239m-2.757.291c0-2.338-.5-4.047-1.6-4.047-.935,0-1.37,1.306-1.37,3.467,0,2.337.5,4.046,1.595,4.046.936,0,1.371-1.306,1.371-3.466"/>
      <path d="M72.3,33.467c0,2.063-1.209,4.288-3.966,4.288a2.979,2.979,0,0,1-1.5-.354v2.385L68.6,40.98H62.831L64.3,39.786V31.709l-1.628-.983,4.079-1.274v1.661a2.217,2.217,0,0,1,2.257-1.661c2.1,0,3.289,1.951,3.289,4.015m-2.564.725c0-1.935-.838-2.886-1.886-2.886a2.168,2.168,0,0,0-1.016.258v4.014c0,1.049.452,1.677,1.145,1.677.951,0,1.757-1.145,1.757-3.063"/>
      <path d="M84.064,36.53V32.741a1.338,1.338,0,0,0-1.306-1.5,1.86,1.86,0,0,0-1.063.339V36.53l1.144,1.226H78.018l1.145-1.226V32.741a1.329,1.329,0,0,0-1.3-1.5,1.669,1.669,0,0,0-1.065.4V36.53l1.145,1.226H72.8l1.467-1.226V31.71l-1.628-.984,4.079-1.273v1.8a3.189,3.189,0,0,1,2.66-1.8,2.089,2.089,0,0,1,2.177,1.789,2.669,2.669,0,0,1,2.611-1.789c1.306,0,2.434.919,2.434,2.789V36.53l1.468,1.226H82.92Z"/>
      <path d="M95.61,34.612c-.258,1.128-1,3.321-3.546,3.321A3.93,3.93,0,0,1,88.1,33.741a4.085,4.085,0,0,1,4.063-4.288c1.983,0,3.208,1.209,3.386,3.482H90.032A2.829,2.829,0,0,0,93,35.757a3.5,3.5,0,0,0,2.611-1.145M90.032,32.4H92.95a3.486,3.486,0,0,0,.064-.677c0-1.032-.338-1.822-1.112-1.822-1.08,0-1.79,1.193-1.87,2.5"/>
      <path d="M106.7,37.755h-5.288L102.7,36.53V32.757a1.365,1.365,0,0,0-1.386-1.515,1.972,1.972,0,0,0-1.258.467V36.53l1.291,1.225H96.062l1.467-1.225V31.709L95.9,30.726l4.079-1.273V31.29a3.209,3.209,0,0,1,2.757-1.837,2.513,2.513,0,0,1,2.5,2.789V36.53Z"/>
      <path d="M109.7,37.933a2.457,2.457,0,0,1-2.4-2.741V30.13h-1.515l4.046-3.079V29.6h2.273l-.145.532h-2.128V34.6c0,1.176.629,1.821,1.467,1.821a2.145,2.145,0,0,0,1.113-.354,3.133,3.133,0,0,1-2.709,1.87"/>
      <path d="M21.181,45.579v6.03l-2.225-1.467a3.977,3.977,0,0,1-3.095,1.725c-2.515,0-5.127-2.386-5.127-5.949a5.755,5.755,0,0,1,5.981-5.869,7.854,7.854,0,0,1,4.644,1.467l-2.112,2.241-3.032-3.224a4.112,4.112,0,0,0-3.288,4.353c0,2.483,1.757,5.191,4.691,5.191a3.443,3.443,0,0,0,.855-.1v-4l-2.644,1.6v-2Z"/>
      <path d="M29.26,43.644l-.725,2.644a1.706,1.706,0,0,0-1.371-.822,1.23,1.23,0,0,0-.983.467V50.4l1.628,1.209H22.182L23.649,50.4V45.562l-1.627-.983L26.1,43.305v2.257c.37-1.515,1.112-2.192,1.982-2.192a2.672,2.672,0,0,1,1.177.274"/>
      <path d="M38.322,47.545a4.024,4.024,0,0,1-4.289,4.24,3.979,3.979,0,0,1-4.192-4.24,4.033,4.033,0,0,1,4.289-4.24,3.98,3.98,0,0,1,4.192,4.24m-2.757.291c0-2.338-.5-4.047-1.6-4.047-.935,0-1.371,1.306-1.371,3.466,0,2.338.5,4.047,1.6,4.047.935,0,1.371-1.306,1.371-3.466"/>
      <path d="M45.271,51.867V49.949a2.96,2.96,0,0,1-2.483,1.837,2.5,2.5,0,0,1-2.515-2.772V45.6l-1.628-.984L42.8,43.306v5.143c0,.951.549,1.515,1.241,1.515a1.93,1.93,0,0,0,1.146-.435V45.6l-1.629-.984,4.159-1.306v6.3l1.629.983Z"/>
      <path d="M58.267,47.32c0,2.064-1.209,4.289-3.966,4.289a2.975,2.975,0,0,1-1.5-.355V53.64l1.773,1.194H48.8l1.468-1.194V45.563l-1.629-.984,4.08-1.273v1.661a2.215,2.215,0,0,1,2.256-1.661c2.1,0,3.289,1.951,3.289,4.014m-2.563.726c0-1.934-.838-2.885-1.887-2.885a2.16,2.16,0,0,0-1.015.257v4.015c0,1.047.452,1.676,1.145,1.676.951,0,1.757-1.145,1.757-3.063"/>
  </g>
</svg>
