<svg xmlns="http://www.w3.org/2000/svg" viewBox="0 0 120 64">
  <title>Cobild</title>
  <g>
    <g>
      <path d="M19.461,39.412c-4.844,0-7.853-3.223-7.853-8.412s3.009-8.412,7.853-8.412c3.95,0,6.672,2.238,6.934,5.7l.03.388h-3.7l-.061-.286a2.847,2.847,0,0,0-3.091-2.4h-.223c-2.43,0-4,1.965-4,5.006s1.57,5.006,4,5.006h.223a2.806,2.806,0,0,0,3.091-2.4l.059-.288h3.7l-.029.387C26.139,37.227,23.481,39.412,19.461,39.412Zm0-16.1C15,23.31,12.33,26.185,12.33,31S15,38.69,19.461,38.69c3.509,0,5.789-1.728,6.175-4.645H23.3a3.519,3.519,0,0,1-3.73,2.683h-.223c-2.869,0-4.722-2.248-4.722-5.728s1.853-5.728,4.722-5.728h.223A3.528,3.528,0,0,1,23.3,27.955h2.333C25.3,25.642,23.534,23.31,19.461,23.31Z"/>
      <path d="M53.579,39.188H46.062V22.812h7.294c3.043,0,5.169,1.813,5.169,4.409a4.047,4.047,0,0,1-1.981,3.623,4.059,4.059,0,0,1,2.316,3.824C58.86,37.287,56.639,39.188,53.579,39.188Zm1.332-8.3c2.482-.939,2.885-2.476,2.892-3.67,0-2.206-1.787-3.687-4.447-3.687H46.784V38.466h6.8c2.642,0,4.559-1.6,4.559-3.8C58.138,31.568,54.911,30.891,54.911,30.891Zm-1.779,5.614H49.081V31.824h4.051c1.722,0,2.709.849,2.709,2.329C55.841,35.648,54.854,36.505,53.132,36.505ZM49.8,35.783h3.329c1.319,0,1.987-.548,1.987-1.63,0-1.607-1.495-1.607-1.987-1.607H49.8Zm3.105-5.831H49.081V25.5h3.827c2.26,0,2.6,1.389,2.6,2.217C55.506,29.136,54.559,29.952,52.908,29.952ZM49.8,29.23h3.105c1.262,0,1.876-.5,1.876-1.517,0-.37,0-1.5-1.876-1.5H49.8Z"/>
      <path d="M64.555,39.188H60.814V22.812h3.741Zm-3.019-.722h2.3V23.534h-2.3Z"/>
      <path d="M79.828,39.188H67.254V22.812H71V35.783h8.833Zm-11.852-.722H79.107V36.505H70.273V23.534h-2.3Z"/>
      <path d="M31.719,31c0-3.135,1.537-5.006,4.112-5.006h.223a3.778,3.778,0,0,1,2.852,1.143l.509-.51a4.477,4.477,0,0,0-3.361-1.355h-.223C32.849,25.272,31,27.467,31,31a7.138,7.138,0,0,0,.723,3.322l.54-.539A6.618,6.618,0,0,1,31.719,31Z"/>
      <path d="M40.166,31c0,3.135-1.537,5.006-4.112,5.006h-.223A3.841,3.841,0,0,1,33.22,35.1l-.513.513a4.542,4.542,0,0,0,3.124,1.12h.223c2.982,0,4.834-2.2,4.834-5.728a7.416,7.416,0,0,0-.571-3l-.551.551A6.98,6.98,0,0,1,40.166,31Z"/>
      <path d="M30.12,35.922A8.352,8.352,0,0,1,28.7,31c0-4.672,2.843-7.69,7.242-7.69a7.117,7.117,0,0,1,4.983,1.808l.526-.526a7.846,7.846,0,0,0-5.509-2c-4.838,0-7.964,3.3-7.964,8.412a9.062,9.062,0,0,0,1.612,5.453Z"/>
      <path d="M42.491,25.825l-.536.535A8.523,8.523,0,0,1,43.185,31c0,4.672-2.843,7.69-7.243,7.69A7.212,7.212,0,0,1,31.211,37.1l-.527.527a7.937,7.937,0,0,0,5.258,1.78c4.839,0,7.965-3.3,7.965-8.412A9.228,9.228,0,0,0,42.491,25.825Z"/>
      <g>
        <path d="M97.771,23.525h-1.98v-.713h4.753v.713H98.563v4.831h-.792Z"/>
        <path d="M102.5,23.509v4.847h-.792V22.812h1.315l1.655,4.8,1.624-4.8h1.307v5.544h-.792V23.485l-1.632,4.871H104.17Z"/>
      </g>
      <g>
        <path d="M91.274,27.183c-.9-1.129-2.369-1.687-4.427-1.687H84.362V34.26l.721-.722V26.217h1.764c1.842,0,3.128.485,3.9,1.494l.072.1.533-.533Z"/>
        <path d="M91.63,31c0,3.263-1.52,4.783-4.783,4.783h-1.76l-.722.722h2.482c3.7,0,5.505-1.8,5.505-5.505a8.018,8.018,0,0,0-.279-2.2l-.6.6A7.708,7.708,0,0,1,91.63,31Z"/>
        <path d="M82.064,23.534h5.007a7.588,7.588,0,0,1,5.717,2.135s.032.032.084.089l.529-.529-.083-.091a8.316,8.316,0,0,0-6.247-2.326H81.342V37.279l.722-.721Z"/>
        <path d="M94.336,26.534l-.55.549A8.455,8.455,0,0,1,94.649,31c0,4.745-2.722,7.466-7.467,7.466H82.4l-.721.722h5.5c5.128,0,8.189-3.061,8.189-8.188A9.169,9.169,0,0,0,94.336,26.534Z"/>
      </g>
    </g>
  </g>
</svg>
